<svg width="351" height="351" viewBox="0 0 351 351" fill="none" xmlns="http://www.w3.org/2000/svg">
<path d="M176.359 75.5498C210.62 75.5498 234.622 84.9221 249.874 104.104H249.875C262.846 120.396 269.466 144.389 269.466 175.501C269.466 206.613 262.845 230.591 249.874 246.896C234.701 265.966 210.87 275.351 176.894 275.448V275.438H176.359C142.099 275.437 118.097 266.066 102.845 246.884V246.883C89.8737 230.605 83.254 206.6 83.2539 175.501C83.2539 144.402 89.8734 120.41 102.845 104.104C118.097 84.9222 142.099 75.5499 176.359 75.5498Z" stroke="#E8E8E3" stroke-width="1.06846"/>
<path d="M213.809 170.435C216.968 170.449 215.531 169.445 213.863 168.51C213.117 168.076 212.317 167.75 211.558 167.357C210.934 167.032 210.283 166.815 209.795 166.286C209.524 166.001 209.32 165.621 209.063 165.323C209.442 165.188 209.863 165.554 210.12 165.567C210.486 165.608 211.015 165.459 211.463 165.513C211.829 165.554 212.141 165.716 212.48 165.852C213.103 164.957 213.822 164.13 215.029 164.225C215.327 164.238 215.829 164.564 215.897 164.55C216.127 164.51 216.9 163.845 217.334 163.696C217.809 163.52 218.663 163.357 219.151 163.316C219.585 163.303 220.765 163.655 221.104 163.899C222.121 164.659 221.809 166.95 220.928 167.737C221.85 168.361 222.704 169.608 222.758 170.747C222.758 171.127 222.622 171.751 222.419 172.049C222.311 172.225 222.121 172.252 222.026 172.388C221.917 172.578 221.89 172.862 221.741 173.107C221.497 173.527 220.928 173.69 221.022 174.3C221.117 174.869 222.704 175.019 223.178 175.168C223.856 175.371 224.982 175.778 224.656 176.646C224.019 178.463 221.294 175.629 220.439 175.249C220.236 175.154 219.924 175.1 219.694 175.073C216.968 174.802 213.863 175.263 211.097 175.073L207.991 177.419C207.259 176.659 206.283 177.134 205.361 177.08C204.371 175.412 202.31 175.019 201.049 176.632C200.913 176.808 200.655 177.391 200.615 177.432C200.533 177.514 200.072 177.568 199.869 177.663C199.421 177.907 199.069 178.653 198.825 179.1C198.432 178.856 197.672 179.114 197.401 179.059C197.252 179.019 196.953 178.571 196.642 178.449C196.411 178.354 195.625 178.259 195.353 178.259C194.689 178.3 193.55 178.775 193.713 179.548C194.526 179.303 195.231 178.883 196.059 179.303C196.886 179.724 196.167 180.117 196.777 180.646C196.818 180.28 197.455 179.968 197.767 179.927C198.296 179.873 198.906 180.415 199.34 180.226C199.869 179.981 199.611 179.019 200.249 178.49C200.777 178.056 201.333 178.219 201.618 178.056C201.672 178.015 202.093 177.324 202.364 177.107C203.083 176.578 204.601 176.591 204.371 177.785C204.71 177.73 205.374 177.608 205.673 177.73C205.808 177.771 205.876 177.934 205.957 177.961C206.147 177.975 207.327 177.337 207.246 178.164C206.852 178.395 205.673 179.276 205.564 179.697C205.361 180.497 205.957 181.188 206.771 181.188C207.096 181.188 208.303 180.89 208.439 181.229V185.487C207.991 185.934 207.53 186.246 207.232 186.856C206.283 185.46 204.805 184.714 203.259 184.171C199.286 182.748 194.974 183.06 190.919 182.07C190.214 181.893 188.004 181.148 187.828 180.402C187.38 178.436 189.997 176.754 191.448 175.913C192.37 175.371 194.119 174.72 194.757 174.015C195.991 172.673 194.757 172.008 193.469 171.629C193.36 171.018 193.265 170.422 192.953 169.866C192.574 169.161 191.231 168.008 191.272 167.249C191.285 166.869 191.692 166.72 191.991 166.638C191.136 165.54 192.438 164.74 193.441 164.618C193.347 163.994 193.441 163.709 194.025 163.425C194.201 163.343 194.54 163.289 194.608 163.235C194.662 163.181 194.797 162.815 194.906 162.692C195.109 162.421 195.679 161.892 195.95 161.608C196.669 160.862 198.391 160.699 199.055 161.526C199.232 161.73 199.435 162.489 199.489 162.516C199.571 162.57 200.004 162.462 200.208 162.57C200.384 162.652 200.479 163.086 200.723 163.14C200.913 163.194 201.144 163.14 201.333 163.154C201.822 163.248 202.201 163.343 202.716 163.425C202.852 163.438 203.001 163.425 203.042 163.615L200.235 164.252C199.53 164.957 199.042 165.988 198.404 166.706C197.591 167.615 195.977 168.469 195.286 169.337C194.472 170.327 196.628 169.947 196.804 170.435C196.859 170.584 196.913 172.835 196.804 172.93C196.221 172.822 195.503 173.012 195.353 173.663C195.733 173.608 196.113 173.513 196.492 173.581C196.791 173.635 196.967 173.866 197.157 173.92C197.577 174.029 198.404 173.568 199.055 173.581C199.638 173.595 200.059 173.961 200.357 174.015C200.506 174.029 200.723 173.879 200.899 173.866C201.713 173.812 202.242 173.879 203.001 174.232C203.055 173.785 203.706 173.595 204.1 173.608C204.574 173.622 204.913 174.273 205.198 174.313C205.374 174.313 205.564 174.124 205.74 174.083C206.608 173.893 206.988 174.571 207.734 174.517C208.005 174.503 208.181 174.327 208.412 174.286C208.615 174.246 209.402 174.191 209.496 174.137C209.537 174.124 209.741 173.622 209.971 173.473C210.744 172.93 211.652 173.337 212.127 174.056C212.412 173.974 212.642 173.785 212.941 173.785C213.334 173.771 213.985 173.961 214.242 174.205C214.351 174.313 214.392 174.598 214.663 174.693C215.151 174.056 214.27 173.324 213.7 173.107V170.422H213.809V170.395V170.435Z" fill="#E8E8E3"/>
<path d="M188.126 176.741C186.689 178.287 185.97 180.266 187.855 181.799C191.57 184.822 200.303 183.277 205.198 186.138C205.469 186.287 206.595 187.046 206.337 187.385C206.106 187.426 205.754 188.009 205.659 188.05C205.51 188.104 205.334 188.05 205.212 188.104C203.869 188.673 202.323 189.731 202.581 191.413C202.635 191.806 203.286 192.362 203.164 192.552C203.069 192.741 202.73 193.067 202.581 193.257C202.486 193.392 202.35 193.745 202.296 193.786C202.147 193.881 201.252 193.881 200.954 193.989C200.533 194.138 199.95 194.992 199.679 195.006C199.286 194.965 198.906 194.775 198.486 194.735C198.093 194.694 197.184 194.843 196.94 194.816C196.886 194.816 196.492 194.436 196.33 194.342C195.381 193.799 193.753 193.447 192.709 193.813C191.963 194.084 192.072 194.016 191.272 194.111C190.499 194.206 188.967 195.101 188.777 195.915C188.736 196.05 188.668 196.837 188.682 196.959C188.723 197.162 189.157 197.786 189.319 197.976C189.455 198.152 190.092 198.491 189.523 198.586C188.885 198.694 187.38 197.921 186.838 197.528C186.295 197.135 185.59 196.104 185.007 195.982C184.085 195.752 183.231 196.077 182.431 196.552L181.536 196.118C181.427 195.928 181.685 195.453 181.834 195.304C183.787 193.257 190.919 193.596 193.821 192.755C195.34 192.308 197.564 190.884 196.506 189.04C194.703 185.921 187.326 185.446 184.709 182.924L183.895 181.785C183.814 182.599 184.289 183.263 184.817 183.833C186.621 185.799 190.418 186.599 192.94 187.67C194.364 188.28 197.062 189.297 194.703 190.884C192.56 192.321 188.777 192.091 186.228 192.47C184.207 192.769 180.288 193.338 180.397 196.009C180.098 195.955 179.529 196.348 179.353 196.348C179.068 196.348 178.254 196.023 177.807 196.009C176.695 195.969 175.746 196.525 174.756 196.918C175.366 195.047 177.278 193.487 179.054 192.769C181.115 191.914 183.421 191.941 185.495 191.182C186.675 190.748 187.611 189.813 186.987 188.497C185.848 186.097 182.363 185.948 180.098 185.338C178.865 184.999 175.895 184.104 177.264 182.327C178.512 180.7 182.282 180.47 184.194 180.022C185.346 179.751 186.729 178.395 186.539 177.12L188.085 176.754H188.126V176.741Z" fill="#E8E8E3"/>
<path d="M175.678 182.667C175.922 184.403 177.36 185.338 178.892 185.881C180.601 186.491 184.791 186.898 185.821 188.362C186.716 189.65 184.587 190.139 183.719 190.369C182.038 190.817 180.221 190.898 178.567 191.549C176.356 192.403 173.658 194.654 173.549 197.19C172.41 196.905 171.353 197.108 170.309 197.569C169.915 197.746 168.79 198.519 168.546 198.559C168.464 198.559 168.152 198.356 167.922 198.315C167.597 198.275 167.258 198.315 166.932 198.315C166.39 197.176 165.115 196.119 163.868 195.888C163.488 195.807 163.095 195.902 162.769 195.793C162.579 195.739 161.956 195.034 161.712 194.844C160.979 194.261 159.705 193.515 158.755 193.407C158.484 193.366 157.698 193.447 157.644 193.407C157.549 193.366 157.277 193.013 157.155 192.918C155.813 191.915 154.145 191.739 152.518 192.01C152.03 191.386 151.175 190.898 150.362 190.912C150.891 189.908 151.989 190.084 152.911 189.678C154.538 189 155.555 187.63 155.84 185.894C157.481 186.043 158.376 184.701 159.569 183.901C160.966 183.481 162.823 183.942 164.003 183.033C164.451 182.694 164.871 182.165 164.776 181.582C165.63 181.881 166.485 181.962 167.352 181.731C167.529 181.691 167.786 181.46 167.922 181.501C168.003 181.501 168.681 182.016 168.966 182.111C169.508 182.26 170.105 182.152 170.553 182.247C170.783 182.301 171.041 182.572 171.312 182.681C172.6 183.223 174.336 183.02 175.651 182.681H175.665L175.678 182.667ZM171.57 193.325C171.624 192.851 171.529 192.308 171.57 191.806C171.854 191.806 171.949 192.132 172.112 192.322C172.343 192.552 172.627 192.756 172.817 192.945C173.021 193.149 173.237 193.651 173.495 193.773C174.078 194.057 174.838 193.854 174.878 193.149C174.878 192.918 174.783 192.715 174.783 192.512C174.743 191.183 174.77 190.925 174.173 189.732C173.848 189.054 173.183 188.688 172.587 189.257C172.058 187.82 170.77 185.962 169.237 185.515C168.329 185.243 167.407 185.379 166.525 185.216C165.481 185.026 164.288 183.915 163.162 184.362C163.068 184.403 162.051 185.026 162.01 185.081C161.644 185.433 161.006 187.223 160.572 187.888C160.396 188.132 160.057 188.525 159.854 188.783C159.569 189.081 159.189 189.162 159.081 189.596L159.447 189.732C159.433 189.881 159.311 190.003 159.501 190.098C160.356 190.057 160.559 189.705 160.6 188.918L161.549 187.63L162.132 192.837C162.417 193.922 163.623 194.668 163.962 193.19C164.152 192.39 164.166 191.454 164.546 190.667C164.627 190.518 164.654 190.369 164.871 190.342C165.061 190.328 166.837 190.979 166.919 191.088C166.878 192.2 166.919 194.532 168.627 194.261C169.59 194.112 168.966 193.149 169.047 192.484C169.061 192.254 169.183 192.105 169.237 191.901L169.671 191.996C169.671 192.661 169.617 193 170.092 193.515C170.661 194.139 171.515 194.437 171.61 193.325H171.597V193.339L171.57 193.325Z" fill="#E8E8E3"/>
<path d="M149.724 175.737C149.86 175.452 150.266 175.452 150.538 175.384C150.633 175.235 150.199 174.557 150.022 174.489C149.453 174.313 149.588 175.005 149.073 174.923C149.222 174.123 148.409 173.106 147.636 173.025C147.215 172.984 145.805 173.377 145.48 173.649C145.276 173.825 145.154 174.123 144.951 174.218C144.842 174.272 144.558 174.218 144.368 174.259C142.93 174.652 142.008 176.062 142.646 177.5C142.741 177.73 143.012 177.988 143.066 178.178C143.175 178.598 143.08 179.086 143.459 179.479C141.452 179.208 139.676 179.927 138.157 181.161C136.964 182.124 135.906 183.398 135.093 184.686C134.333 183.778 133.466 183.059 132.421 182.53C131.554 182.083 130.713 182.137 131.716 180.768C132.137 180.225 132.611 180.13 133.262 180.225C133.601 180.279 133.561 180.456 133.601 180.469C134.089 180.713 134.022 179.805 134.089 179.574C134.279 178.856 135.242 178.517 135.811 178.191C136.015 178.083 136.15 177.811 136.435 177.744C137.398 177.418 138.171 177.988 139.066 177.947C139.215 177.717 138.713 177.472 138.618 177.364C137.954 176.564 137.845 176.13 138.09 175.113C138.171 174.815 138.51 174.205 138.523 173.974C138.523 173.743 138.347 173.459 138.334 173.16C138.279 172.198 138.537 171.737 139.486 171.574C140.978 171.303 141.412 171.967 142.7 172.279C144.598 172.713 146.47 172.279 148.341 172.13C149.046 172.076 150.158 172.238 150.768 172.645C150.999 172.794 151.053 173.093 151.311 173.188C151.65 173.296 151.853 173.106 152.165 173.147C152.463 173.188 153.561 173.676 153.806 173.866C154.05 174.055 154.294 174.571 154.619 174.72C155.067 174.91 155.541 174.855 156.097 175.167C156.49 175.398 157.304 176.32 157.44 176.374C157.684 176.469 158.24 176.483 158.592 176.605C159.026 176.754 159.867 177.188 160.084 177.594C160.165 177.73 160.138 177.933 160.233 178.069C160.68 178.842 161.182 178.734 161.901 179.059C162.796 179.452 163.487 179.913 163.514 180.971C163.569 183.398 160.463 182.368 158.891 182.883C158.362 183.059 157.412 184.212 156.694 184.524C156.179 184.768 155.148 184.768 154.958 184.876C154.673 185.052 154.768 185.554 154.687 185.798C154.294 187.168 153.738 187.887 152.45 188.51C151.772 188.836 150.646 188.904 150.158 189.229C149.67 189.568 149.331 190.571 148.517 190.68C147.934 190.043 147.066 189.351 146.185 189.297C146.144 188.931 146.388 188.673 146.456 188.334C146.605 187.222 145.832 186.192 144.68 186.137C143.622 186.083 142.334 186.151 141.371 186.625C141.141 186.734 139.893 187.683 139.703 187.209C139.717 186.842 139.473 186.571 139.405 186.246C139.324 185.947 139.418 185.717 139.269 185.283C138.646 183.602 136.774 185.107 136.34 186.178C136.164 186.286 135.961 185.853 135.974 185.69C135.988 185.486 137.683 183.439 137.94 183.168C139.039 182.069 141.195 180.822 142.781 180.971C144.07 181.079 144.693 182.015 145.466 182.842C145.385 183.791 145.764 185.283 146.524 185.907C146.795 186.11 147.134 186.137 147.337 186.259C147.487 186.354 147.636 186.734 147.921 186.883C148.558 187.263 149.534 187.303 150.131 186.842C150.416 186.639 150.416 186.3 150.904 186.354C150.944 186.354 151.514 186.598 151.541 186.625C151.785 186.815 151.717 187.29 152.26 187.263C153.033 187.249 152.883 186.219 152.436 186.11C152.205 186.056 151.961 186.151 151.772 186.056C152.531 185.622 153.155 185.012 153.304 184.103C153.507 182.896 153.304 181.934 152.314 181.147C153.168 181.323 153.643 181.256 153.494 180.239L153.263 180.157L152.409 180.076C152.843 179.262 153.561 180.13 153.887 179.439C154.253 178.639 153.277 178.286 152.694 178.856C152.585 178.286 152.87 177.866 152.639 177.31C152.463 176.889 151.541 175.737 151.094 175.737H149.67V175.71L149.724 175.737Z" fill="#E8E8E3"/>
<path d="M151.284 215.563C152.138 215.129 153.101 215.129 153.996 214.844C154.986 214.519 155.623 213.936 156.762 213.895C157.535 213.854 157.67 214.125 158.281 214.315C159.42 214.681 159.759 214.519 160.423 215.739C161.169 217.122 160.233 220.512 159.352 221.76C158.633 222.777 156.979 222.722 155.894 222.533C155.948 223.428 155.555 223.902 154.687 223.428C154.118 223.102 153.765 222.438 153.155 222.126C152.491 221.787 151.731 221.787 151.053 221.516C151.107 219.739 149.521 218.085 147.704 218.248C147.473 218.261 147.094 218.343 147.419 218.546C147.758 218.777 148.273 218.912 148.653 219.129C149.996 219.956 149.955 221.027 150.335 222.424C151.772 222.6 153.155 222.533 153.969 223.956C154.199 224.35 154.403 224.77 154.606 225.15C154.904 225.679 155.135 226.546 154.511 226.953C154.24 227.129 153.643 227.238 153.318 227.143C152.884 227.035 151.745 226.465 151.311 226.221C149.968 225.421 148.667 224.051 148.111 222.573C147.962 222.478 147.69 222.573 147.528 222.519C146.755 222.343 145.426 220.946 145.046 220.255C143.839 218.085 144.599 216.959 144.273 214.912C144.178 214.37 143.419 213.57 143.229 212.946C142.429 210.261 144.043 206.735 147.161 206.817C147.406 206.817 148.558 207.156 148.585 207.427C148.504 207.779 148.233 207.969 148.151 208.349C147.975 209.068 148.246 209.746 147.975 210.464C147.772 211.047 146.822 211.291 146.863 211.888C146.863 212.227 147.148 212.512 147.012 212.973C146.931 213.203 146.484 213.42 146.389 213.678C147.202 213.624 147.623 213.339 147.907 212.58C147.989 212.403 147.907 212.2 148.002 212.037C148.016 211.997 148.341 211.752 148.436 211.644C149.589 210.098 148.721 208.403 150.633 207.278C151.84 206.559 153.209 206.6 154.592 206.654L154.782 206.749C154.986 207.386 155.84 207.657 156.152 208.132C156.437 208.566 156.599 209.773 156.45 210.247C156.45 210.302 155.935 211.047 155.867 211.142C155.677 211.386 155.257 211.658 155.162 211.902C155.053 212.186 155.121 212.444 155.067 212.729C154.782 214.153 152.111 214.505 151.338 215.631H151.311L151.284 215.563ZM148.897 215.278C149.318 214.41 149.602 213.366 150.009 212.512C150.158 212.214 151.067 210.654 151.257 210.559C151.446 210.464 151.704 210.559 151.921 210.505C152.789 210.315 152.246 209.013 151.528 209.203C150.619 209.434 151.148 210.166 151.053 210.342C151.053 210.356 150.863 210.424 150.782 210.491C149.629 211.603 148.911 212.363 148.206 213.854C147.907 214.519 147.677 215.346 147.338 215.997C147.243 216.146 146.7 216.756 146.768 216.851C147.921 217.204 149.195 217.651 150.253 218.275C151.243 218.858 151.636 219.766 152.884 220.227C153.182 220.336 153.752 220.404 153.901 220.472C154.077 220.566 154.05 220.892 154.43 220.919C155.162 221.014 155.542 219.916 154.85 219.78C154.552 219.726 154.308 219.875 154.036 219.861C153.413 219.861 152.423 219.197 152.07 218.682C152.735 218.6 153.372 218.79 154.036 218.777C154.43 218.777 155.053 218.505 155.325 218.505C155.514 218.505 155.664 218.709 155.962 218.695C156.884 218.641 156.911 217.149 155.636 217.543C155.406 217.624 155.094 217.895 155.27 218.126C153.548 218.41 151.84 217.787 150.24 217.217L152.111 216.973C152.599 217.922 153.643 216.729 152.911 216.498C152.585 216.404 152.111 216.688 151.636 216.675C150.823 216.634 149.86 216.39 149.046 216.295L150.565 214.926C150.836 214.722 150.931 214.22 151.107 214.017C151.257 213.841 151.528 213.827 151.691 213.597C152.111 213.054 151.596 212.553 150.985 212.892C150.565 213.136 150.89 213.57 150.782 213.759C150.674 213.949 149.019 215.427 148.856 215.278H148.87V215.265L148.897 215.278Z" fill="#E8E8E3"/>
<path d="M201.414 162.055C201.075 161.784 200.777 161.757 200.492 161.567C200.208 161.377 200.018 160.889 199.774 160.672C199.055 160.048 197.428 159.75 196.574 160.198C196.302 160.333 195.963 160.781 195.774 160.862C195.597 160.943 195.38 160.916 195.19 160.998C194.567 161.242 193.753 161.96 193.699 162.638C192.587 161.459 192.804 160.008 194.241 159.248C193.862 158.286 195.068 157.96 195.787 157.77C195.787 156.848 197.238 155.764 198.052 155.614C198.418 155.56 198.906 155.669 199.204 155.574C199.448 155.492 199.869 154.936 200.452 154.814C200.831 154.733 201.984 154.801 202.323 154.963C202.703 155.153 203.611 156.387 203.72 156.401C204.804 155.953 205.672 156.414 206.581 156.97C206.594 157.106 206.432 157.106 206.337 157.12C205.794 157.296 205.32 157.228 204.804 157.608C204.465 157.852 204.425 158.137 204.221 158.381C203.977 158.665 203.584 158.706 203.476 159.208C203.476 159.303 203.557 159.452 203.516 159.533C203.476 159.587 202.703 159.913 202.459 160.116C202.323 160.225 201.55 161.16 201.645 161.255C202.255 160.821 203.069 160.116 203.855 160.36C204.126 160.442 204.032 160.971 204.56 160.564C204.804 160.374 204.71 159.981 204.56 159.75C204.56 159.615 205.076 159.574 205.198 159.398C205.333 159.221 205.238 159.004 205.401 158.787C205.699 158.408 206.594 158.272 207.042 158.245C207.367 158.231 208.872 158.245 209.049 158.353C209.388 158.557 209.157 158.787 209.198 159.018C209.198 159.059 209.632 159.465 209.686 159.601L210.961 159.682C211.327 159.954 211.34 160.387 211.964 160.293L211.774 161.106C212.412 160.876 212.954 160.835 213.605 161.106C213.591 160.808 213.171 160.659 213.076 160.537C212.981 160.428 212.995 160.184 212.873 159.967C212.452 159.303 212.344 159.438 211.774 159.14C211.544 159.031 211.395 158.692 211.137 158.598C210.866 158.516 210.5 158.611 210.31 158.516C210.228 158.462 209.876 157.77 209.673 157.594C208.9 156.916 207.964 157.309 207.625 157.106C207.516 157.025 207.286 156.618 207.15 156.469C206.405 155.696 205.862 155.384 204.804 155.167C204.71 155.153 204.669 155.248 204.71 155.058C204.899 154.34 206.486 153.391 207.15 153.106C207.381 153.011 207.72 153.024 207.869 152.916C208.018 152.807 208.1 152.279 208.317 151.994C209.076 151.031 210.757 151.275 211.747 151.763C211.951 151.858 212.127 152.116 212.262 152.157C212.588 152.251 213.347 152.007 213.849 152.143C214.866 152.387 215.585 153.255 215.897 154.204C216.222 155.194 216.127 155.94 216.669 156.916C217.144 157.743 217.592 157.92 217.388 159.086C217.334 159.411 217.063 159.628 216.968 159.954C216.683 160.943 217.049 161.594 215.964 162.34C215.286 162.815 214.473 162.788 213.768 163.154C212.94 163.588 212.33 164.347 211.612 164.876C211.327 164.727 210.893 164.835 210.622 164.767C210.228 164.659 209.727 164.279 209.279 164.198C208.859 164.116 208.289 164.252 207.95 164.157C207.72 164.076 207.34 163.52 207.123 163.357C206.513 162.964 206.133 163.316 205.577 163.357C204.723 163.398 204.059 162.354 202.933 162.259C202.499 162.218 201.93 162.394 201.645 162.354C201.455 162.354 201.455 162.164 201.374 162.11V162.055H201.401H201.414Z" fill="#E8E8E3"/>
<path d="M179.014 198.315C179.678 197.691 180.654 196.823 181.631 197.325C181.631 197.379 181.048 197.99 180.953 198.098C175.041 206.071 175.773 219.509 180.315 227.944C180.939 229.096 182.024 229.991 181.617 231.469C181.441 232.106 181.007 232.676 180.315 232.717C176.152 232.947 174.01 228.798 173.034 225.394C171.691 220.811 172.518 213.692 173.562 209.055C174.376 205.42 176.288 200.891 179.027 198.301L179.014 198.315Z" fill="#E8E8E3"/>
<path d="M196.072 145.214C196.126 145.417 195.896 145.458 195.746 145.485C195.326 145.539 194.065 145.377 193.889 145.634C193.794 145.783 193.835 146.055 193.699 146.177C193.59 146.272 192.56 146.611 192.356 146.651C190.811 146.977 189.197 146.76 187.624 146.922C186.824 145.377 185.36 145.011 183.705 145.119C183.312 145.133 182.837 145.309 182.417 145.309C181.603 145.309 180.831 145.078 179.976 145.227C179.271 145.336 177.739 145.838 177.535 146.57C179.217 146 180.546 145.851 182.281 146.244C183.285 146.475 183.027 146.353 183.963 146.299C184.546 146.258 185.888 146.285 186.349 146.665C186.797 147.045 185.712 147.994 185.4 148.211C183.041 150.123 180.993 149.58 178.213 149.404C177.169 149.35 176.207 149.648 175.095 149.594C172.545 149.445 172.559 148.685 170.837 147.356C170.037 146.733 169.101 146.312 168.342 145.648C167.338 144.821 166.443 143.641 165.562 142.678C165.576 142.312 168.233 142.014 168.613 142C169.522 141.946 170.783 141.946 171.637 142.271C172.247 142.515 172.383 143.031 173.264 142.814C173.318 142.814 173.318 142.665 173.4 142.638C174.118 142.461 174.878 142.556 175.61 142.543C175.285 142.054 174.376 141.783 173.834 141.729C172.491 141.58 172.735 141.58 171.583 141.159C171.013 140.956 170.376 140.875 169.766 140.82C170.091 138.949 172.532 138.231 174.2 138.461C175.013 138.57 176.532 139.356 177.251 139.804C179.637 141.336 180.112 143.519 183.434 143.736C184.817 143.831 187.963 143.438 188.994 144.21C189.319 144.455 189.536 145.2 189.916 145.2H196.085H196.072V145.214Z" fill="#E8E8E3"/>
<path d="M178.241 197.202C177.848 197.826 177.251 198.301 176.79 198.884C175.312 200.742 173.698 203.915 173.047 206.193C171.42 211.793 170.24 221.583 172.329 227.089C172.844 228.458 174.227 230.234 174.322 231.59C174.403 232.743 173.942 233.109 172.83 233.204C172.03 233.258 169.644 233.285 169.088 232.757C168.6 232.309 168.952 231.767 168.817 231.468C168.532 230.831 167.61 231.279 167.284 230.424C167.013 229.746 167.678 229.055 167.759 228.309C167.949 226.383 167.461 224.2 167.42 222.275C167.244 214.152 168.6 207.264 173.264 200.552C173.888 199.643 174.566 198.626 175.529 198.07C175.949 197.84 177.915 196.931 178.268 197.202H178.254H178.241Z" fill="#E8E8E3"/>
<path d="M165.115 143.613C166.078 144.562 166.986 145.756 167.99 146.623C168.79 147.301 169.766 147.762 170.607 148.4C171.407 149.024 173.373 150.841 173.997 151.6C175.081 152.902 175.095 156.915 174.959 158.597C174.824 160.278 174.092 161.933 174.132 163.573L172.044 163.234C171.569 162.529 171.027 162.041 170.186 161.797C169.888 161.702 169.508 161.838 169.278 161.526C169.807 161.038 170.769 161.295 171.23 160.753C171.339 160.617 171.434 160.238 171.474 160.224C171.746 160.048 172.573 160.455 173.142 159.926C173.902 159.221 173.251 158.285 172.519 157.905C171.691 157.471 170.932 157.716 170.037 157.634C168.695 157.539 168.112 157.214 166.729 157.81C166.281 158 165.712 158.475 165.332 158.61C164.884 158.76 164.369 158.692 164.003 159.194C163.894 159.194 163.04 157.797 162.715 157.743C163.135 156.156 162.132 155.302 161.481 154.027L162.118 152.075C163.04 152.508 165.305 153.078 166.173 152.522C166.281 152.441 166.267 152.251 166.457 152.237C166.701 152.224 167.203 152.427 167.474 152.427C168.139 152.427 168.844 152.319 168.871 151.559C169.549 151.369 171.041 151.885 171.217 150.922C171.271 150.583 170.851 149.959 170.552 149.783C170.078 149.512 169.495 149.688 169.156 149.539C168.979 149.457 168.776 149.024 168.573 148.861C167.759 148.224 167.095 148.685 166.403 148.508C166.349 148.508 166.159 148.115 165.969 148.02C165.671 147.83 165.427 147.925 165.25 147.83C165.156 147.776 165.101 147.559 164.979 147.451C164.369 146.935 163.488 146.393 162.823 147.125C162.498 147.491 162.633 147.83 161.915 147.668C161.616 147.613 161.481 147.098 161.101 146.922C160.871 146.827 160.627 146.868 160.491 146.786C160.41 146.746 160.26 146.447 160.057 146.298C159.772 146.095 159.379 145.959 159.013 146.013C159.054 145.62 158.959 145.186 159.026 144.806C159.176 144.047 160.83 142.284 161.562 142.04C163.135 141.525 164.098 142.623 165.088 143.613H165.101H165.115Z" fill="#E8E8E3"/>
<path d="M204.696 153.105C204.262 153.498 203.937 153.959 203.598 154.434C202.486 153.566 201.171 153.634 199.91 154.109C198.893 154.488 198.893 154.339 197.862 154.434C196.954 154.529 195.964 155.098 195.381 155.804C195.177 156.048 194.852 156.712 194.703 156.848C194.418 157.092 194.079 156.929 193.564 157.431C193.292 157.702 192.669 158.61 192.425 158.963C192.14 159.411 192.031 159.926 191.719 160.36L191.489 160.305C190.906 159.411 190.16 158.638 189.319 158.041C189.211 157.526 191.896 155.776 192.37 155.356C193.984 153.932 194.621 151.627 196.357 150.475C198.377 149.132 201.13 148.549 203.286 147.356C204.723 146.556 205.727 145.634 207.015 144.684C207.408 144.4 209.063 143.206 209.402 143.139C211.259 142.759 211.571 144.684 212.236 145.918C212.859 147.057 214.731 149.458 214.717 150.651C214.717 150.786 214.636 151.098 214.487 151.125C213.904 150.854 213.158 151.03 212.561 150.881C212.019 150.746 211.612 150.312 211.07 150.163C209.931 149.864 208.398 150.054 207.585 150.922C207.395 151.112 207.056 151.736 206.947 151.831C206.364 152.264 205.496 152.373 204.696 153.105Z" fill="#E8E8E3"/>
<path d="M202.201 136.142C203.069 136.82 206.161 138.122 207.245 138.014C207.734 137.973 208.262 137.634 208.778 137.58C210.812 137.349 211.666 139.953 210.907 141.539C209.279 141.485 208.073 142.746 206.784 143.519H206.676C206.052 142.394 205.13 141.2 204.032 140.536C200.71 138.543 196.791 139.221 194.513 142.353C194.119 142.882 193.889 143.424 193.618 144.021C193.509 143.98 193.374 143.939 193.265 143.926C192.587 143.899 190.458 143.98 189.997 143.804C189.807 143.736 189.78 143.492 189.617 143.37C187.543 141.634 184.817 142.624 182.471 142.068C180.763 141.661 180.776 139.112 182.417 138.76C183.231 138.583 183.855 138.732 184.37 139.438C184.6 139.79 184.383 139.926 185.007 140.156C185.685 140.414 186.594 140.387 186.96 141.173C187.8 140.563 188.587 140.536 189.617 140.604C190.011 140.102 190.228 139.56 190.811 139.207C191.638 138.692 192.221 139.017 193.048 138.773C193.93 138.515 195.719 137.051 196.045 136.21C196.465 135.058 195.896 132.495 196.777 131.695C197.753 130.8 198.716 131.898 199.15 132.766C199.299 133.037 199.435 133.824 199.584 133.959C199.842 134.19 199.964 133.864 200.235 133.891C200.384 133.891 200.927 134.203 201.035 134.298C201.537 134.732 201.537 135.627 202.269 136.197V136.142H202.255H202.201Z" fill="#E8E8E3"/>
<path d="M157.766 196.687C157.711 196.267 156.776 194.694 156.423 194.477C155.664 193.962 154.81 194.287 153.996 194.572C152.694 195.019 152.613 195.426 151.691 196.185C151.175 196.606 150.389 197.04 149.955 197.487C149.535 197.907 149.223 198.762 148.857 199.101C148.721 199.236 148.558 199.236 148.436 199.345C147.636 200.24 147.284 201.786 146.985 202.938C146.66 202.64 146.457 202.314 146.063 202.084C145.345 201.65 142.809 201.474 141.914 201.596C141.467 201.65 140.992 201.989 140.707 202.03C140.314 202.07 139.785 201.975 139.31 202.084C139.229 202.098 138.348 202.653 138.158 202.762C137.141 203.345 135.92 204.674 134.863 204.864C134.009 205.013 132.422 204.593 131.649 204.199C129.073 202.898 130.632 199.833 131.744 198.03C132.178 198.084 132.558 198.355 132.992 198.45C134.293 198.748 135.487 198.491 136.531 197.65C136.856 197.406 137.426 196.47 137.819 196.836C137.927 196.931 138.334 197.989 138.483 198.274C139.473 200.009 140.775 201.243 142.931 201.04C143.324 200.999 143.88 200.809 144.07 200.457C144.219 200.186 144.07 199.725 144.49 199.697C144.599 199.697 144.884 199.901 145.114 199.941C145.779 200.036 146.538 199.996 147.107 199.657C147.392 199.48 149.318 197.853 149.399 197.663C149.63 197.148 148.924 196.09 148.355 196.118C148.45 195.779 148.68 195.629 148.735 195.25C148.816 194.572 148.545 193.921 148.057 193.473C147.785 193.229 147.446 193.134 147.229 192.931C146.89 192.646 146.511 192.104 146.172 191.887C145.996 191.778 145.073 191.507 145.073 191.439C145.738 190.802 145.345 190.205 146.551 190.422C147.419 190.572 148.233 191.711 148.694 191.846C148.965 191.928 149.806 191.792 150.226 191.86C150.674 191.941 151.23 192.212 151.65 192.443C151.881 192.578 152.748 193.27 152.83 193.297C152.979 193.338 153.454 193.067 153.725 193.026C154.498 192.931 155.691 193.107 156.41 193.446C156.789 193.636 157.752 194.531 157.942 194.558C158.077 194.599 158.566 194.463 158.837 194.477C160.03 194.558 161.006 195.236 161.861 196.023C162.091 196.226 162.213 196.606 162.525 196.741C162.769 196.85 163.434 196.782 163.827 196.89C164.22 197.026 165.21 197.501 165.508 197.758C165.698 197.935 165.942 198.138 165.929 198.436C165.915 198.531 165.156 198.816 165.034 198.83C164.559 198.911 163.881 198.585 163.42 198.585C161.996 198.585 159.881 198.965 158.552 199.494C158.281 199.602 158.037 199.765 157.779 199.847C157.684 198.857 157.915 197.65 157.779 196.687H157.82V196.66L157.766 196.687Z" fill="#E8E8E3"/>
<path d="M195.014 149.906C193.97 151.14 193.523 151.994 192.628 153.242C191.638 154.611 190.2 155.099 189.129 156.144C188.831 156.428 188.261 157.54 187.99 157.567L183.976 156.279C181.888 154.137 179.434 153.35 176.857 152.157C176.518 152.008 174.607 151.045 174.512 150.855C174.417 150.652 174.62 150.76 174.688 150.747C175.515 150.706 176.369 150.747 177.21 150.733C179.353 150.679 181.522 151.018 183.665 150.625C185.156 150.34 186.377 149.201 187.38 148.103C189.306 148.089 191.19 148.116 193.089 147.777C193.374 147.723 193.889 147.438 194.038 147.628C194.282 148.401 194.743 149.079 195.272 149.689L195.231 149.825C195.231 149.825 195.082 149.906 195.041 149.933H195.028L195.014 149.906Z" fill="#E8E8E3"/>
<path d="M183.231 223.021C182.214 223.97 181.4 223.075 180.939 222.126C179.163 218.573 178.729 213.854 178.824 209.936C178.919 206.003 179.868 200.362 183.041 197.65C183.461 197.298 184.438 196.742 184.912 197.23C185.672 198.003 184.763 198.762 184.397 199.467C182.254 203.671 181.576 207.197 182.946 211.807C183.963 215.292 185.495 218.695 183.705 222.248C183.597 222.479 183.407 222.831 183.231 223.007V223.021Z" fill="#E8E8E3"/>
<path d="M175.326 166.612C175.326 166.612 175.651 166.422 175.759 166.273C176.058 165.92 176.139 165.378 176.031 164.931C175.949 164.646 175.366 164.253 175.271 164.036C175 163.466 175.936 160.212 176.031 159.317C176.234 157.445 176.112 154.625 175.637 152.781C175.597 152.672 175.542 152.645 175.732 152.686C175.881 152.699 176.966 153.269 177.129 153.391C179.909 155.208 179.57 161.134 179.963 164.063C180.356 166.992 182.892 169.283 183.882 172.131C183.923 172.267 184.153 172.958 184.153 173.026C184.153 173.067 183.814 173.5 183.76 173.514C183.529 173.595 183.136 173.473 182.865 173.528C182.634 173.568 182.567 173.758 182.228 173.704C181.943 173.65 181.55 172.836 181.143 172.687C180.804 172.538 180.438 172.646 180.153 172.578C179.882 172.497 179.583 172.239 179.285 172.158C178.173 171.86 176.79 172.117 175.99 172.985C175.651 172.782 175.854 172.592 175.854 172.307C175.854 171.005 175.854 169.785 175.651 168.497C175.597 168.104 175.176 166.883 175.326 166.626V166.612Z" fill="#E8E8E3"/>
<path d="M159.528 141.851C159.419 141.946 159.324 142.149 159.162 142.285C158.592 142.8 158.443 142.963 157.616 142.922C156.219 142.841 155.799 141.824 156.07 140.535C156.178 139.952 156.87 139.491 156.843 138.949C156.843 138.664 156.395 138.176 156.273 137.796C156.178 137.444 156.219 137.037 156.328 136.698C156.477 136.169 157.873 133.43 158.226 132.928C158.863 131.965 160.138 132.304 161.006 132.82C161.684 133.24 162.308 134.108 162.958 134.528C163.731 135.016 164.043 134.569 164.667 135.572C164.816 135.816 164.843 136.115 165.006 136.332C165.06 136.386 166.186 137.335 166.253 137.349C166.891 137.552 168.45 137.349 168.694 136.63C168.803 136.305 168.681 135.966 169.128 135.803C169.928 135.477 171.555 136.101 171.813 136.915C172.152 138 171.366 137.878 170.633 138.217C169.549 138.745 168.626 139.491 168.423 140.752L168.315 140.834C167.704 140.915 167.108 140.834 166.498 140.929C165.982 141.024 164.586 141.566 164.301 141.552C164.057 141.512 163.284 140.969 162.782 140.888C161.291 140.617 160.585 140.942 159.528 141.891V141.851Z" fill="#E8E8E3"/>
<path d="M183.787 157.31C185.238 158.693 187.421 161.893 187.57 163.9C187.665 165.229 187.231 166.815 187.651 168.022C187.99 169.012 188.831 169.446 188.668 170.653C188.56 171.615 187.516 171.941 187.082 172.7C186.458 172.28 185.74 172.497 185.034 172.429C184.695 171.439 184.234 170.327 183.692 169.419C183.312 168.754 182.77 168.185 182.39 167.52C180.519 164.334 181.156 161.446 180.519 157.961C180.275 156.659 179.814 155.384 179.177 154.232C179.312 154.123 180.695 154.937 180.912 155.086C181.739 155.628 183.082 156.605 183.787 157.283V157.296V157.31Z" fill="#E8E8E3"/>
<path d="M173.129 198.206C171.406 199.657 169.82 201.393 168.532 203.237C164.545 208.932 164.762 214.397 163.704 220.892C163.609 221.421 163.569 222.126 162.891 222.139C162.755 220.892 161.467 221.76 160.843 221.38C160.206 221 160.992 220.105 161.182 219.658C161.616 218.614 161.928 217.665 161.765 216.512C161.752 216.336 161.142 214.803 161.033 214.6C160.803 214.166 159.745 213.366 159.758 213.054C160.03 212.241 160.192 211.386 160.477 210.573C161.725 207.02 165.562 201.976 168.749 199.942C169.983 199.142 171.61 198.233 173.088 198.206H173.129Z" fill="#E8E8E3"/>
<path d="M172.22 158.842C172.03 159.655 169.576 158.747 170.213 159.94C169.888 160.021 169.549 159.994 169.223 160.089C169.034 160.143 168.111 160.605 168.017 160.713C167.867 160.889 167.908 161.432 167.976 161.662C168.071 161.866 168.315 161.798 168.45 161.893C168.505 161.947 168.545 162.164 168.654 162.286C169.169 162.869 170.823 162.923 171 163.249C171.23 163.683 169.915 164.334 169.671 164.537C170.091 164.632 170.674 164.686 171.095 164.632C171.393 164.578 171.447 164.347 171.827 164.361C172.776 164.361 174.024 164.889 174.986 164.998C174.946 166.11 173.441 165.798 172.749 165.906C172.451 165.961 172.044 166.245 171.61 166.3C171.176 166.354 169.562 166.313 169.156 166.205C168.871 166.123 168.586 165.825 168.356 165.812C168.125 165.812 167.881 165.961 167.637 166.001C167.257 166.042 166.633 166.001 166.267 165.906C165.969 165.812 165.549 165.418 165.318 165.378C165.074 165.337 164.871 165.581 164.599 165.622C163.921 165.73 163.23 165.622 162.606 165.337C162.172 165.147 161.793 165.323 161.223 165.242C160.409 165.147 160.314 164.876 159.297 164.876H157.779C157.725 164.673 157.819 164.727 157.887 164.673C158.226 164.401 158.85 164.089 159.27 163.954C159.65 163.845 160.504 163.805 160.653 163.683C160.925 163.493 160.735 163.208 160.843 162.964C161.047 162.544 161.982 162.788 162.321 162.788C162.769 162.788 163.23 162.611 163.704 162.693C164.247 162.774 164.844 163.371 165.576 162.978C165.494 162.801 165.196 162.788 165.033 162.652C164.844 162.503 164.179 161.906 164.138 161.73C163.989 161.188 164.233 161.093 163.474 160.835C163.772 160.415 164.532 160.537 164.844 160.388C164.952 160.333 165.02 160.116 165.183 159.994C165.467 159.804 165.847 159.845 166.132 159.75C167.081 159.425 167.664 158.598 169.006 158.598C169.386 158.598 169.766 158.828 170.105 158.842C170.769 158.882 171.556 158.652 172.247 158.882L172.193 158.828L172.22 158.842Z" fill="#E8E8E3"/>
<path d="M204.913 141.946C205.185 142.19 206.161 143.384 206.147 143.682C205.185 144.496 204.195 145.296 203.096 145.933C200.954 147.208 198.54 147.764 196.357 148.984C195.462 149.228 194.784 147.153 195.082 146.462C195.815 146.353 198.635 146.38 198.811 145.499C199.11 143.885 196.099 144.197 195.164 144.075C196.018 142.15 197.781 140.726 199.883 140.441C201.591 140.197 203.625 140.739 204.913 141.919V141.933V141.946Z" fill="#E8E8E3"/>
<path d="M156.002 195.385C156.057 195.724 156.382 195.914 156.518 196.199C156.802 196.782 156.667 198.965 156.572 199.698C156.491 200.281 155.962 201.067 155.894 201.474C155.718 202.627 155.745 202.193 155.257 203.115C154.877 203.833 154.768 204.389 154.118 204.986C153.412 205.65 152.938 205.311 152.07 205.42C151.528 205.501 150.985 205.813 150.443 205.949C150.361 205.867 150.863 204.661 150.985 204.525C151.175 204.349 151.934 204.199 152.26 204.05C152.775 203.806 153.345 203.386 153.738 202.966C153.019 202.979 152.341 203.508 151.541 203.386L152.68 201.189C153.345 201.04 154.321 200.715 154.796 200.186C155.379 199.481 154.226 200.077 154.023 200.131C153.751 200.213 153.494 200.281 153.209 200.267L154.66 197.975L154.118 198.206L152.341 200.172L151.921 198.884L151.528 198.965C151.433 199.047 151.473 200.104 151.473 200.308C151.473 200.579 151.65 201.013 151.623 201.216C151.623 201.298 150.809 202.599 150.755 202.545L150.402 201.176C149.507 201.121 149.968 202.667 150.077 203.182C150.117 203.359 150.267 203.576 150.267 203.671C150.267 203.766 149.683 204.999 149.589 205.244C149.453 205.61 149.358 206.111 149.236 206.437C149.087 206.762 148.965 206.342 148.843 206.247C148.395 205.908 148.043 205.962 147.948 205.23C147.677 203.454 148.395 201.271 149.331 199.779C149.846 198.952 150.131 199.101 150.673 198.667C151.216 198.233 151.677 197.284 152.301 196.904C152.585 196.728 152.884 196.701 153.155 196.565C153.914 196.145 154.402 195.792 155.297 195.508C155.446 195.453 156.002 195.304 156.097 195.358H156.043V195.372L156.002 195.385Z" fill="#E8E8E3"/>
<path d="M176.966 174.802H175.447C175.312 174.802 174.905 174.991 174.729 174.978C174.58 174.937 174.525 174.693 174.39 174.598C173.047 173.5 171.556 173.825 169.929 173.852C169.413 173.215 168.722 172.646 167.867 172.551C167.488 172.496 166.918 172.632 166.62 172.537C166.484 172.496 165.996 171.778 165.725 171.615C165.494 171.466 165.02 171.371 164.952 171.29C164.857 171.181 164.762 170.49 164.762 170.3C164.762 169.351 165.386 169.432 165.915 168.93C166.349 168.537 166.932 167.696 167.108 167.154C167.542 167.262 168.112 166.978 168.437 166.978C168.545 166.978 168.925 167.249 169.183 167.303C169.807 167.452 170.634 167.303 171.149 167.439C171.285 167.479 172.763 168.537 172.912 168.686C174.091 169.879 173.902 171.601 174.647 172.795C175.23 173.703 176.125 174.219 176.98 174.815V174.802H176.966Z" fill="#E8E8E3"/>
<path d="M132.327 183.534C132.652 183.724 133.533 184.389 133.818 184.646C133.954 184.755 134.537 185.473 134.523 185.595C133.859 186.612 133.371 187.738 132.977 188.89C132.218 190.979 131.215 196.294 129.818 197.61C129.343 198.057 128.489 198.098 128.286 197.406C128.001 196.457 128.516 195.738 128.286 195.02C128.137 194.531 127.662 194.545 127.431 194.206C127.147 193.772 127.079 193.108 127.16 192.592C127.296 191.833 128.489 191.25 128.896 190.585C129.52 189.636 129.235 188.782 129.601 187.901C129.804 187.372 130.455 186.911 130.591 186.504C130.876 185.541 130.008 183.819 130.455 183.168C130.781 182.721 131.947 183.277 132.327 183.507V183.521V183.534Z" fill="#E8E8E3"/>
<path d="M162.498 158.678C162.647 158.828 162.972 159.112 162.986 159.343V159.451C162.226 159.926 161.982 160.997 162.701 161.648C161.806 161.729 160.613 161.594 159.921 162.19C159.813 162.285 159.731 162.489 159.677 162.529C159.569 162.611 158.592 162.774 158.281 162.923C157.521 163.248 156.124 164.021 156.463 165.025C156.83 166.082 158.457 165.947 159.379 166.028C160.586 166.123 161.915 166.299 163.094 166.516C163.908 166.692 164.64 166.72 165.481 166.57C164.993 167.614 163.867 167.655 163.149 168.482C162.782 168.876 162.538 169.296 162.511 169.852L161.562 169.567C161.454 168.754 160.857 168.32 160.138 168.035C159.989 167.981 159.718 167.981 159.65 167.926C159.514 167.831 159.203 167.059 158.796 166.814C157.982 166.34 157.169 166.733 156.396 166.57C156.07 166.489 155.826 166.042 155.446 165.865C155.107 165.716 154.728 165.689 154.362 165.594C154.28 164.767 153.846 164.36 153.399 163.723L153.589 162.855C153.779 162.855 153.968 162.801 154.158 162.801C155.08 162.801 156.206 163.248 157.074 163.004C157.684 162.855 157.901 162.231 158.253 162.082C158.538 161.946 159.013 162.028 159.352 161.892C159.596 161.797 159.826 161.567 160.111 161.458C160.776 161.214 162.023 161.214 161.793 160.265C161.562 159.302 160.111 159.275 159.311 159.302C159.175 159.017 158.931 158.543 158.647 158.394C158.321 158.217 157.697 158.285 157.535 158.19C157.494 158.19 157.114 157.702 157.101 157.661C156.992 157.39 157.047 157.051 156.87 156.699C156.287 155.56 154.402 155.695 153.372 156.034C152.518 156.319 152.735 156.224 151.799 156.278C151.094 156.333 150.782 156.617 150.117 156.048C150.89 155.424 151.107 153.756 152.26 153.675C153.792 153.566 155.067 154.109 156.233 155.058C157.223 155.858 157.942 157.322 159.23 157.539C160.572 157.743 161.399 157.648 162.498 158.692H162.511V158.678H162.498Z" fill="#E8E8E3"/>
<path d="M148.951 156.496C149.127 156.591 149.236 156.944 149.331 157.011C149.48 157.093 150.7 157.364 150.863 157.35C151.256 157.35 151.867 156.917 152.436 156.917C152.87 156.917 153.426 157.296 153.711 157.283C154.199 157.242 155.948 156.13 156.043 157.242C156.084 157.689 155.799 157.906 155.799 157.961C155.799 158.015 156.572 158.72 156.694 158.869C156.775 158.964 156.789 159.195 156.884 159.249C157.182 159.452 158.552 159.045 158.335 160.212C158.674 160.076 160.057 159.873 159.813 160.537C159.582 161.107 159.053 160.89 158.606 160.971C158.308 161.025 157.969 161.269 157.752 161.31C157.467 161.351 157.182 161.174 156.897 161.215C156.979 161.825 156.151 162.042 155.69 161.934C155.501 161.893 155.392 161.69 155.216 161.69C154.985 161.69 154.701 161.88 154.402 161.866C154.117 161.852 153.697 161.527 153.67 161.527C153.616 161.527 153.439 161.717 153.29 161.757C152.992 161.839 152.138 161.663 151.867 161.473C151.663 161.324 151.663 161.107 151.351 160.998C151.053 160.89 150.456 161.269 150.022 161.134C149.548 159.737 147.826 160.496 146.768 159.71C146.321 159.384 145.534 158.232 146.321 157.879C147.121 157.513 147.649 158.598 148.422 158.612L147.595 157.405C147.175 157.323 145.778 157.54 145.629 157.052C145.344 156.103 146.253 155.845 147.012 155.954C147.338 155.994 148.788 156.388 149.06 156.523H148.978L148.951 156.496Z" fill="#E8E8E3"/>
<path d="M202.161 199.454C202.161 199.454 201.673 199.833 201.591 199.847C200.439 200.077 199.476 199.115 198.486 200.037C197.822 199.562 197.374 199.264 196.52 199.427C196.154 199.508 195.856 199.779 195.462 199.847C193.7 200.091 192.832 198.708 191.476 198.016C190.771 197.664 189.618 197.623 189.889 196.538C190.025 195.996 191.421 195.264 191.937 195.196C192.276 195.155 192.669 195.25 193.022 195.182C193.347 195.101 193.374 194.708 194.133 194.653C195.381 194.559 196.561 195.169 197.347 196.104C197.632 196.091 197.768 195.82 198.025 195.711C198.893 195.359 199.666 195.806 200.425 196.199C200.791 195.874 201.225 195.25 201.7 195.101C202.174 194.952 202.69 195.142 203.178 194.952C203.476 194.043 204.547 192.687 205.564 192.66C206.31 192.66 207.395 192.864 207.951 193.392C208.236 193.677 209.063 194.87 209.226 195.223C209.456 195.752 209.768 197.176 209.117 197.474C208.439 197.772 208.222 197.515 207.68 197.488C207.07 197.474 206.405 197.637 205.849 197.338C205.659 197.338 205.185 198.396 204.71 198.545C204.127 198.735 203.381 198.464 202.785 198.45C202.432 198.64 202.391 199.25 202.202 199.467V199.427L202.161 199.454Z" fill="#E8E8E3"/>
<path d="M214.554 187.683C214.69 187.914 215.463 188.022 215.544 188.741C215.653 189.839 214.351 189.216 213.578 189.351C212.832 189.46 212.778 190.111 212.425 190.585C212.29 190.762 211.815 191.25 211.652 191.358C211.205 191.684 210.229 191.806 209.944 192.131C209.754 192.334 209.659 193.026 209.429 193.08C208.669 193.121 208.561 192.511 208.046 192.185C207.178 191.643 205.578 191.412 204.588 191.521C204.303 191.562 203.788 192.009 203.639 191.562C203.354 190.734 204.628 189.745 205.252 189.46C205.645 189.283 206.025 189.311 206.269 189.216C206.405 189.161 206.974 188.483 207.476 188.226C207.679 188.131 208.046 188.09 208.181 188.022C208.425 187.873 208.29 187.358 208.601 187.06C209.076 186.612 209.646 186.924 210.025 186.734C210.215 186.639 210.459 185.826 210.744 185.541C212.127 184.199 214.147 185.093 214.473 186.843C214.514 187.073 214.432 187.548 214.514 187.67H214.568L214.554 187.683Z" fill="#E8E8E3"/>
<path d="M171.217 181.189C170.932 180.701 172.749 179.548 173.129 179.331C174.525 178.558 175.936 178.504 177.332 177.88C178.539 177.351 179.909 176.158 181.305 176.199C181.726 176.199 182.051 176.443 182.404 176.484C183.271 176.578 184.072 176.131 185.021 176.619C185.699 176.985 185.495 177.392 185.102 177.907C183.922 179.44 179.515 179.548 177.508 180.552C177.183 180.728 176.546 181.257 176.356 181.311C176.112 181.365 175.841 181.311 175.583 181.352C174.403 181.582 173.522 182.016 172.288 181.772C171.908 181.691 171.569 181.379 171.23 181.243V181.202L171.217 181.189Z" fill="#E8E8E3"/>
<path d="M167.081 199.468C164.979 201.379 163.162 203.373 161.616 205.732C160.219 207.875 158.904 210.193 158.308 212.702C157.413 212.472 156.545 212.458 155.663 212.702L156.775 211.4C157.548 210.261 157.779 209.299 157.074 208.01C156.938 207.766 156.531 207.427 156.558 207.183C156.572 207.048 156.952 206.559 157.046 206.383C159.189 203.237 162.674 200.932 166.213 199.644C166.484 199.549 166.782 199.468 167.067 199.44V199.481H167.081V199.468Z" fill="#E8E8E3"/>
<path d="M186.635 198.762C186.77 198.722 187.014 198.708 187.123 198.776C187.543 199.63 186.824 200.362 186.512 201.108C185.834 202.871 185.834 204.932 186.499 206.709C187.136 208.471 189.116 210.112 187.421 211.97C186.851 212.594 185.265 213.109 184.641 212.39C183.651 211.251 183.367 208.282 183.448 206.803C183.584 204.661 184.75 201.312 185.929 199.522C186.065 199.318 186.404 198.817 186.607 198.749H186.621V198.762H186.635Z" fill="#E8E8E3"/>
<path d="M190.607 203.752C190.716 203.929 191.055 204.322 191.231 204.458C191.95 205 193.102 204.973 193.143 206.166C193.753 206.085 194.662 206.22 194.77 206.939C195.136 209.054 192.777 209.285 191.245 209.176C187.746 208.946 186.268 205.217 187.611 202.247C187.99 201.434 188.614 201.203 189.346 201.813C189.916 202.261 190.201 203.156 190.58 203.739H190.594V203.752H190.607Z" fill="#E8E8E3"/>
<path d="M160.369 147.56C160.789 147.953 161.142 148.482 161.237 149.052C161.955 148.279 162.85 148.197 163.623 148.957L163.705 148.008C164.559 147.723 164.572 149.092 165.44 148.686C165.305 149.608 166.105 149.065 166.674 149.065C167.244 149.065 168.206 149.16 167.637 149.879C167.935 150.259 169.739 149.784 169.929 150.516C169.454 150.869 167.718 150.177 167.556 150.665C167.461 150.937 167.881 151.154 167.569 151.235C167 151.384 165.617 150.815 165.305 151.154C165.169 151.289 165.291 151.493 165.033 151.533C164.22 151.628 163.46 151.438 162.701 151.208C162.457 151.126 162.254 150.937 161.996 150.909C161.671 150.855 161.372 151.004 161.223 150.964C161.087 150.923 160.952 150.679 160.735 150.625C160.247 150.516 159.677 150.801 159.148 150.381C158.959 150.245 158.85 149.906 158.701 149.838C158.308 149.635 157.806 149.703 157.331 149.296C156.992 148.998 156.938 148.536 156.762 148.347C156.572 148.157 155.948 148.062 155.772 147.818C155.094 146.909 156.287 146.245 157.101 146.394C157.467 146.475 157.521 146.936 157.847 147.099C158.986 146.95 159.515 146.679 160.382 147.533H160.369V147.547V147.56Z" fill="#E8E8E3"/>
<path d="M146.307 203.251C146.7 203.671 147.161 204.621 146.877 205.163C146.158 206.56 145.073 204.729 144.409 204.268C144.07 204.038 143.5 203.699 143.08 203.685C142.253 203.671 143.31 204.255 143.459 204.404C143.69 204.607 143.853 204.878 144.043 205.136L142.28 205.231C141.995 204.892 141.615 204.566 141.168 204.512C140.924 204.471 140.463 204.417 140.49 204.783L141.398 205.326C140.666 205.285 139.771 205.421 139.202 205.909L142.659 205.773C142.551 206.261 142.09 206.533 141.751 206.831C141.656 206.926 141.52 206.966 141.561 207.129C142.415 207.048 143.012 206.465 143.473 205.8L144.951 206.126C144.748 206.37 144.382 206.424 144.097 206.6C143.663 206.885 143.337 207.143 143.134 207.658C142.904 208.228 143.148 208.58 142.266 208.485C140.815 208.336 140.259 206.912 138.863 206.777C137.724 206.668 136.3 207.17 135.622 206.004C136.991 205.773 137.547 204.675 138.768 204.105C138.903 204.051 139.107 204.065 139.188 204.01C139.269 203.956 139.324 203.59 139.486 203.441C140.015 202.953 140.856 203.143 141.439 203.021C141.615 202.98 141.71 202.831 141.859 202.79C142.917 202.505 145.493 202.37 146.307 203.224V203.21V203.251Z" fill="#E8E8E3"/>
<path d="M147.528 194.192C147.894 194.762 147.053 195.724 146.728 196.145L145.249 196.633C145.914 196.931 146.551 197.175 147.297 197.08C147.582 197.04 148.111 196.633 148.26 197.121C148.206 197.419 146.714 198.491 146.361 198.613C145.263 199.06 144.3 198.708 143.243 198.342C143.256 197.718 143.107 197.053 142.7 196.565L143.744 196.511L143.948 196.877C144.531 197.053 145.195 196.335 144.816 195.819C144.517 195.44 144.043 195.969 143.704 195.86L141.534 195.141C142.049 195.101 142.619 195.182 143.121 195.141C143.5 195.101 144.273 194.802 144.504 194.816C144.639 194.816 144.734 194.992 144.938 194.952C145.697 194.843 145.222 193.772 144.612 193.962C144.368 194.043 144.422 194.301 144.341 194.382C144.016 194.707 140.978 194.382 140.409 194.192C140.273 194.152 140.11 194.097 140.07 193.948C141.887 193.745 144.192 191.684 145.955 192.863C146.294 193.094 146.565 193.487 146.877 193.758C147.026 193.894 147.514 194.124 147.541 194.138V194.192H147.528Z" fill="#E8E8E3"/>
<path d="M135.201 186.951C135.906 187.805 135.581 189.094 135.649 190.097C135.744 191.195 136.273 192.158 136.923 193.012C136.476 193.555 136.313 193.934 136.395 194.653C136.435 194.924 136.679 195.141 136.49 195.399C136.151 195.833 134.781 196.389 134.239 196.443C133.913 196.484 132.693 196.348 132.652 195.955L133.791 191.236L135.215 186.938V186.951H135.201Z" fill="#E8E8E3"/>
<path d="M166.362 225.326C166.213 224.716 165.549 224.336 165.318 223.78C164.491 221.719 165.318 216.214 165.738 213.895C166.281 210.844 167.122 208.091 168.64 205.379C168.966 204.81 169.4 204.172 169.847 203.711C169.4 205 168.735 206.193 168.261 207.454C166.579 211.915 166.172 217.543 166.294 222.289C166.308 223.143 166.579 224.241 166.579 225.028C166.579 225.163 166.538 225.312 166.389 225.353V225.312H166.376L166.362 225.326Z" fill="#E8E8E3"/>
<path d="M190.73 168.632C191.259 169.175 191.842 169.554 192.113 170.314C192.248 170.68 192.289 171.114 192.398 171.466C192.153 171.697 191.869 171.575 191.53 171.765C191.326 171.873 191.082 172.239 190.96 172.28C190.825 172.334 190.255 172.28 189.957 172.375C189.848 172.416 189.279 172.849 189.414 172.958C189.889 172.917 190.838 172.714 191.231 173.012C191.381 173.121 191.408 173.405 191.652 173.433H191.76C192.181 172.443 193.306 172.673 194.12 172.944C194.215 172.985 194.404 172.944 194.323 173.094C194.174 173.46 191.584 174.341 191.028 174.639C190.553 174.911 190.16 175.277 189.658 175.507C189.658 174.748 189.848 173.921 189.292 173.297C189.157 173.148 188.614 172.904 188.655 172.727C189.374 172.334 189.672 171.968 189.808 171.154C190.106 169.446 188.818 168.998 188.601 167.575C188.424 166.463 188.777 164.998 188.641 163.791C188.533 162.734 187.882 161.798 187.557 160.822C188.072 161.215 188.547 161.92 188.709 162.544C189.523 165.636 188.004 165.839 190.716 168.619L190.73 168.632Z" fill="#E8E8E3"/>
<path d="M145.331 187.345C145.425 187.792 145.141 188.199 145.005 188.619C144.802 189.392 144.829 189.867 144.151 190.491C143.419 191.155 141.751 192.402 140.896 192.891C140.693 193.026 140.476 193.121 140.232 193.08C140.056 192.945 141.913 190.653 142.252 190.491C142.7 190.219 143.392 190.355 143.242 189.582C143.134 189.012 142.225 188.755 142.008 189.257C141.954 189.406 142.144 189.596 141.968 189.772C140.91 190.491 140.327 191.358 139.663 192.402C139.608 192.484 139.527 192.633 139.459 192.457C139.364 192.267 139.174 191.182 139.161 190.938C139.107 190.274 139.12 189.69 139.635 189.202C139.934 188.918 140.395 188.918 140.598 188.755C140.747 188.646 140.883 188.185 141.141 187.941C142.13 187.019 144.097 187.263 145.344 187.358H145.331V187.345Z" fill="#E8E8E3"/>
<path d="M160.504 151.804C160.206 153.011 159.081 153.35 159.881 154.76C160.03 155.004 161.21 156.347 160.545 156.564C160.464 156.577 159.108 156.415 158.932 156.374C158.131 156.184 157.508 154.977 156.911 154.421C156.681 154.218 155.433 153.418 155.392 153.323C155.189 152.686 156.586 150.923 157.169 150.557C157.413 150.733 157.901 150.828 158.118 150.95C158.267 151.058 158.362 151.302 158.538 151.465C159.054 151.913 159.867 151.804 160.504 151.818V151.804Z" fill="#E8E8E3"/>
<path d="M157.928 168.945C156.626 170.043 155.257 169.609 153.819 169.812C152.721 169.962 151.65 170.924 150.226 171.06C149.046 171.168 147.649 171.29 146.497 171.345C145.249 171.426 143.92 171.345 142.686 171.06C142.578 170.924 142.876 170.64 142.985 170.572C144.693 169.365 145.982 170.436 147.758 170.423C148.721 170.423 149.385 169.989 150.253 169.799C151.65 169.514 152.694 169.799 154.036 169.026C155.514 168.199 155.677 167.412 157.657 167.643C157.982 167.683 158.416 167.602 158.484 168.009C158.497 168.212 158.063 168.809 157.901 168.931H157.914V168.945H157.928Z" fill="#E8E8E3"/>
<path d="M183.068 174.544C183.366 173.771 184.316 173.907 184.804 174.449C184.858 173.676 186.146 173.446 186.77 173.541C187.068 173.595 187.163 173.826 187.34 173.88C187.679 173.975 188.451 173.609 188.546 174.219C188.696 175.114 187.245 175.71 186.553 175.887C185.563 176.117 185.889 175.927 185.183 175.561C184.56 175.236 183.814 175.236 183.136 175.222C182.282 175.182 181.088 175.222 180.275 175.168C180.004 175.154 179.529 174.802 179.136 174.775C178.77 174.721 178.431 174.775 178.078 174.734L177.183 173.69C177.807 173.243 178.62 173.066 179.353 173.351C179.583 173.446 179.787 173.676 179.99 173.717C180.275 173.771 180.614 173.676 180.858 173.758C181.061 173.839 181.143 174.178 181.278 174.246C181.414 174.327 182.675 174.07 183.014 174.571V174.558L183.068 174.544Z" fill="#E8E8E3"/>
<path d="M182.499 225.842C182.865 226.208 184.044 227.117 184.085 227.578C184.099 227.822 183.8 228.581 183.638 228.771C183.19 229.259 182.39 228.906 182.01 228.486C181.563 227.998 180.329 225.842 180.017 225.177C179.095 223.157 178.349 220.201 178.065 217.991C177.915 216.838 177.834 215.658 177.875 214.492L178.634 218.614C179.366 221.516 180.37 223.767 182.499 225.842Z" fill="#E8E8E3"/>
<path d="M192.709 163.263C192.709 163.263 192.845 163.303 192.858 163.358C192.913 163.927 192.275 163.805 191.95 163.995C191.814 164.076 191.326 164.578 191.231 164.727L190.404 167.032C189.821 165.636 190.214 164.117 189.821 162.639C189.251 160.618 187.245 159.29 185.753 157.988C186.797 158.367 188.045 158.557 189.007 159.073C190.119 159.656 191.963 162.137 192.736 163.249H192.723L192.709 163.263Z" fill="#E8E8E3"/>
<path d="M173.4 175.439C173.4 175.439 172.6 175.791 172.437 175.886C171.393 176.469 168.193 178.191 167.61 179.005C167.081 179.764 167.434 180.063 166.308 180.537C165.305 180.958 164.871 180.673 164.355 179.764L165.684 178.72C166.444 177.297 167.99 177.391 169.047 176.429C169.82 175.724 169.685 174.91 170.878 174.788C171.217 174.747 173.888 174.612 173.373 175.412H173.386L173.4 175.439Z" fill="#E8E8E3"/>
<path d="M148.694 161.052C148.829 161.161 148.965 161.757 149.304 161.974C150.009 162.462 150.552 162.205 151.23 162.313C151.569 162.367 151.989 162.788 152.382 162.761C152.179 163.628 152.274 164.401 152.816 165.106L152.708 165.337L152.382 165.418C152.002 164.279 150.321 164.306 149.318 164.32C148.789 164.32 147.704 164.618 147.256 164.184C146.931 163.886 146.673 163.1 146.863 162.666C146.917 162.53 147.351 162.178 147.351 162.137C147.446 161.703 146.985 161.12 147.582 160.74C147.758 160.632 148.572 160.93 148.694 161.038V161.052Z" fill="#E8E8E3"/>
<path d="M138.497 187.032C138.497 187.032 138.605 187.032 138.646 187.127C138.836 187.521 138.89 187.792 138.754 188.226C138.673 188.47 138.28 188.904 138.28 189.026C138.28 189.202 138.524 189.541 138.551 189.853C138.591 190.382 138.361 191.087 138.361 191.589C138.361 192.063 138.686 192.578 138.727 192.972C138.741 193.243 138.619 193.46 138.632 193.69C138.673 193.989 139.12 194.396 138.497 194.463C137.886 193.012 136.666 191.317 136.53 189.744C136.53 189.595 136.612 189.446 136.612 189.311C136.571 188.605 136.381 187.005 136.693 186.449C136.924 186.056 138.036 185.297 138.429 185.839C138.795 186.314 138.429 186.978 138.469 187.046L138.51 187.005L138.497 187.032Z" fill="#E8E8E3"/>
<path d="M161.874 177.921C162.172 177.595 162.538 177.338 162.837 177.012C163.135 176.687 163.406 176.212 163.745 175.914C164.26 175.48 165.047 175.304 165.616 174.87C165.996 174.571 166.376 174.097 166.539 173.636C167.542 173.636 169.264 173.432 168.532 174.937C167.922 176.144 166.755 176.185 165.766 176.754C165.088 177.134 164.03 178.558 163.189 178.477C162.796 178.436 162.294 177.907 161.86 177.934V177.921H161.874Z" fill="#E8E8E3"/>
<path d="M155.311 166.856C154.687 167.751 153.223 168.307 152.151 168.402C151.636 168.442 151.134 168.347 150.619 168.415C150.104 168.496 149.561 168.835 149.073 168.958C148.531 169.107 145.914 169.636 145.724 169.052C145.629 168.374 145.832 167.656 146.497 167.385C147.785 167.29 149.222 167.588 150.483 167.439C151.189 167.357 152.219 166.964 152.599 166.354C153.331 166.991 154.402 166.544 155.311 166.801V166.815V166.856Z" fill="#E8E8E3"/>
<path d="M178.417 175.737C178.471 175.981 178.363 175.886 178.241 175.968C177.631 176.334 176.912 176.768 176.288 177.025C174.363 177.839 171.61 178.029 170.254 179.941C169.929 180.375 169.969 180.931 169.264 180.836C168.084 180.687 168.559 179.819 169.21 179.263C169.793 178.775 170.539 178.517 171.176 178.124C172.668 177.215 174.2 176.009 176.017 175.832C176.817 175.751 177.644 175.914 178.417 175.737Z" fill="#E8E8E3"/>
<path d="M165.142 173.594C164.695 174.069 163.623 174.408 163.027 174.801C162.417 175.194 161.033 176.713 160.26 176.374C160.166 176.334 159.311 175.737 159.311 175.669C159.61 175.466 159.935 175.276 160.22 175.032C160.518 174.761 160.857 174.259 161.088 174.069C161.481 173.744 162.322 173.527 162.823 173.066C163.339 172.618 163.203 172.238 163.976 172.266C164.898 172.306 166.186 172.455 165.115 173.567H165.129V173.581L165.142 173.594Z" fill="#E8E8E3"/>
<path d="M159.636 173.581C159.108 174.029 158.158 174.72 157.44 174.734C156.897 174.734 156.341 173.974 155.758 173.906L157.25 173.269C158.443 171.995 160.26 172.022 161.372 170.679C161.915 170.883 162.918 170.788 162.416 171.588C161.942 172.306 160.843 172.456 160.247 172.971C160.043 173.147 159.908 173.364 159.636 173.595V173.581Z" fill="#E8E8E3"/>
<path d="M141.466 196.769C141.466 196.769 141.914 197.434 141.941 197.529C142.077 198.098 141.615 198.356 142.28 198.925C142.483 199.102 143.365 199.318 142.958 199.698C140.409 200.593 138.754 197.691 138.659 195.522C139.012 195.183 139.202 195.657 139.514 195.847C140.083 196.186 141.032 196.335 141.466 196.769Z" fill="#E8E8E3"/>
<path d="M162.593 199.847C161.155 200.809 159.677 201.65 158.389 202.816C157.25 203.833 156.301 205.054 155.379 206.247L155.107 205.759C155.691 205.244 155.907 204.525 156.26 203.888C156.504 203.44 156.897 203.06 156.992 202.518C157.046 202.22 156.911 201.881 157.141 201.664C158.809 200.62 160.626 199.982 162.593 199.847Z" fill="#E8E8E3"/>
<path d="M152.545 172.157L153.982 171.262C155.379 171.154 157.345 171.262 158.444 170.3C158.647 170.123 159.203 169.337 159.366 169.242C159.786 169.011 160.667 169.147 160.315 169.757C159.989 170.3 158.511 170.706 157.928 171.032C157.264 171.398 156.83 171.94 156.098 172.225C155.718 172.374 154.416 172.74 154.037 172.74C153.508 172.74 153.087 172.171 152.518 172.198H152.531V172.184L152.545 172.157Z" fill="#E8E8E3"/>
<path d="M207.123 180.008C207.639 179.466 208.276 178.91 208.859 178.422C209.401 177.974 211.096 176.591 211.639 176.361C211.788 176.279 211.842 176.279 211.991 176.266C214.459 175.995 217.429 176.456 219.938 176.279C221.361 177.269 223.124 178.11 224.48 179.141C225.85 180.185 224.385 179.995 223.626 179.995C218.121 180.049 212.629 179.981 207.123 179.995H207.11V180.008H207.123Z" fill="#E8E8E3"/>
<path d="M220.737 183.304C220.778 183.846 220.941 184.416 220.737 184.985C220.697 185.026 220.29 185.175 220.209 185.189C219.409 185.378 216.805 185.433 215.951 185.283C215.056 185.134 214.215 184.47 213.32 184.172C212.14 183.778 211.015 183.846 209.93 184.497V183.412L210.351 183.304H220.737Z" fill="#E8E8E3"/>
<path d="M220.846 181.107H209.958V182.585H220.846V181.107Z" fill="#E8E8E3"/>
<path d="M222.297 180.755C222.501 180.985 223.721 180.606 223.748 180.89C223.748 181.229 223.314 181.622 223.301 181.894C223.26 182.341 224.019 182.911 224.114 183.534C224.318 185.053 223.626 185.623 222.311 184.782V180.728H222.297V180.755Z" fill="#E8E8E3"/>
<path d="M151.46 165.595V165.866C150.28 166.354 149.114 166.435 147.839 166.313C147.65 166.313 146.687 166.205 146.7 166.083L147.69 165.418L151.46 165.595Z" fill="#E8E8E3"/>
<path d="M174.675 169.703L173.576 168.116L172.668 167.249C173.183 167.154 173.766 166.91 174.281 167.154L174.675 169.703Z" fill="#E8E8E3"/>
<path d="M164.613 185.432C164.749 185.798 164.437 185.812 164.328 185.975C163.854 186.653 164.505 186.937 164.518 187.181C164.518 187.263 164.382 187.412 164.369 187.561C164.179 189.473 166.525 189.731 167.732 188.741C168.071 188.47 168.057 187.968 168.22 187.819C168.274 187.737 168.464 187.737 168.559 187.643C168.857 187.371 168.979 187.209 169.047 186.815C170.281 186.585 169.223 187.439 169.101 187.724C169.006 187.927 169.061 188.171 168.993 188.348C168.912 188.497 168.234 188.863 168.234 189.202C168.234 190.314 170.145 190.26 170.634 191.1C170.864 191.494 171.081 192.904 170.308 192.741C170.308 192.266 170.213 191.453 169.888 191.1C169.712 190.91 168.939 190.612 168.695 190.626C168.03 190.68 168.749 193.161 167.732 193.012C167.528 192.389 167.827 190.49 167.433 190.11C167.23 189.907 166.389 190.029 166.05 189.975C165.671 189.921 164.816 189.432 164.477 189.446C164.369 189.446 163.84 189.88 163.759 189.988C163.42 190.558 163.474 191.724 163.189 192.334C163.108 192.483 162.85 192.619 162.755 192.443C162.606 190.395 162.376 188.361 162.362 186.287C162.742 185.432 163.786 185.012 164.613 185.419H164.599L164.613 185.432Z" fill="#E8E8E3"/>
<path d="M171.976 190.03C171.976 190.03 172.125 190.125 172.125 190.26C172.396 190.057 173.21 189.962 173.413 190.206C173.467 190.26 173.739 191.345 173.752 191.508C173.942 193.081 173.128 192.525 172.545 191.711C172.369 191.481 172.166 190.979 172.03 190.857C171.854 190.708 171.488 190.681 171.271 190.531C171.094 190.423 171.04 190.192 170.755 190.016C170.308 189.745 169.942 189.84 169.467 189.718C169.671 189.433 170.186 189.419 170.335 189.08C170.525 188.687 170.132 188.443 170.186 188.131C170.905 187.589 171.176 188.796 171.474 189.311C171.623 189.582 171.759 189.826 171.962 190.043V190.03H171.976Z" fill="#E8E8E3"/>
<path d="M167.99 186.504C167.813 186.748 167.542 186.708 167.312 186.952C166.783 187.494 166.701 188.728 165.494 188.498C164.735 188.362 165.494 187.454 165.494 187.359C165.494 187.169 164.979 186.843 165.386 186.491C165.874 186.043 167.339 186.626 168.003 186.491L167.99 186.504Z" fill="#E8E8E3"/>
<path d="M197.523 169.337C197.97 168.727 198.825 168.347 199.299 167.791C199.882 167.086 200.357 166.083 201.035 165.432C201.889 165.188 202.743 164.957 203.611 164.808C204.032 164.727 205.144 164.51 205.51 164.51C205.659 164.51 205.74 164.51 205.808 164.645L202.608 169.581L197.482 169.351H197.523V169.337Z" fill="#E8E8E3"/>
<path d="M213.348 169.337L204.208 169.567C204.479 169.079 205.008 167.981 205.537 167.764C205.768 167.683 206.08 167.805 206.364 167.764C207.368 167.669 208.371 167.479 209.388 167.384L213.361 169.31H213.348V169.323V169.337Z" fill="#E8E8E3"/>
<path d="M212.263 171.521L204.764 171.426L204.913 170.68L212.71 170.504C212.561 171.033 212.9 172.985 212.575 173.243C212.466 173.338 212.385 173.338 212.249 173.324V171.494L212.263 171.521Z" fill="#E8E8E3"/>
<path d="M203.571 170.707V172.998L202.757 173.269L202.812 171.941L202.703 171.805L198.011 171.425L197.93 170.652C197.984 170.368 199.028 170.408 199.232 170.408C200.628 170.462 202.134 170.829 203.571 170.693V170.707Z" fill="#E8E8E3"/>
<path d="M211.3 172.279C211.3 172.279 211.436 172.523 211.409 172.523C210.88 172.415 210.405 172.347 209.917 172.632C209.768 172.713 209.673 172.917 209.524 172.971C209.185 173.066 208.751 172.93 208.29 173.107C208.005 173.215 207.585 173.69 207.517 173.717C207.463 173.717 206.798 173.378 206.514 173.378C206.188 173.378 205.836 173.676 205.619 173.622C205.442 173.581 205.13 173.079 204.724 173.134L204.778 172.551C204.873 172.442 205.008 172.401 205.158 172.374C206.08 172.239 207.395 172.198 208.344 172.184C208.832 172.184 211.029 172.13 211.3 172.293V172.279Z" fill="#E8E8E3"/>
<path d="M202.201 173.351C201.049 173.5 200.086 172.713 198.947 172.74C198.595 172.74 198.418 172.944 198.093 172.984L198.039 172.469L198.188 172.293C198.703 172.212 199.273 172.239 199.774 172.252C200.262 172.252 201.347 172.334 201.768 172.456C202.242 172.605 202.107 172.903 202.201 173.351Z" fill="#E8E8E3"/>
<path d="M208.412 166.137C207.652 166.219 206.893 166.368 206.12 166.327L207.178 164.686C207.408 164.632 208.29 165.92 208.412 166.137Z" fill="#E8E8E3"/>
<path d="M147.988 182.491C148.816 182.409 149.263 182.003 149.765 181.392C150.158 181.487 150.728 181.338 151.067 181.406C151.46 181.501 151.514 181.745 151.745 182.016C151.839 182.111 152.043 182.165 152.111 182.287C152.206 182.491 152.165 183.426 152.111 183.671C152.002 184.145 151.338 184.823 150.863 184.999C150.239 185.23 149.86 185.271 149.277 184.945C148.273 184.403 147.988 183.616 147.948 182.504H147.988V182.491Z" fill="#E8E8E3"/>
<path d="M151.433 177.12C151.731 177.419 151.528 177.703 151.541 177.947C151.555 178.327 151.717 178.571 151.595 179.005C151.582 179.087 150.687 179.927 150.592 180.009C149.846 180.483 148.856 179.9 148.192 179.534C148.138 179.439 148.273 178.164 148.3 178.002C148.395 177.663 149.128 176.795 149.494 176.727C149.86 176.673 151.175 176.863 151.419 177.107L151.433 177.12Z" fill="#E8E8E3"/>
<path d="M146.063 179.466C146.307 178.802 147.351 178.422 147.311 179.425C147.311 179.629 147.107 179.968 147.202 180.103C147.595 180.293 148.124 180.239 148.436 180.619C148.585 181.066 147.568 181.514 147.161 181.473C147.609 182.015 147.351 182.517 146.619 182.341C146.199 182.246 145.046 181.242 144.938 180.822C144.883 180.632 144.938 180.429 144.883 180.239C144.748 179.751 144.395 179.317 144.843 178.802C145.426 178.164 145.656 179.67 146.077 179.425V179.466H146.063Z" fill="#E8E8E3"/>
<path d="M148.029 176.157C147.365 177.025 146.7 176.863 146.171 177.31C145.982 177.486 145.9 177.947 145.683 178.11C145.385 177.378 145.548 175.479 146.104 174.91C146.334 174.679 147.772 174.191 147.975 174.3C148.178 174.408 148.355 175.249 148.355 175.493C148.355 175.832 148.219 175.886 148.029 176.13V176.144V176.157Z" fill="#E8E8E3"/>
<path d="M144.517 175.737C144.531 175.968 144.422 176.185 144.422 176.415C144.422 177.161 144.599 177.229 144.178 177.907C144.124 178.002 144.178 178.083 143.975 178.015C143.338 177.025 143.351 176.239 144.517 175.724V175.737Z" fill="#E8E8E3"/>
<path d="M147.324 184.157C147.473 184.307 147.663 184.727 147.853 184.958C148.137 185.297 148.517 185.541 148.815 185.866C148.042 186.097 147.947 185.419 147.568 185.12C147.378 184.971 146.985 184.985 146.849 184.849C146.754 184.754 146.469 183.737 146.524 183.656C146.727 183.805 147.161 183.981 147.324 184.144V184.157Z" fill="#E8E8E3"/>
<path d="M100.23 137.051L101.22 136.901C101.22 136.901 100.596 146.298 100.339 149.417C100.284 150.109 100.108 151.18 101.017 152.143V152.794H98.5351H98.8741H96.4333V152.143C96.9622 151.845 97.8164 151.316 97.952 149.417C98.1419 146.651 98.7385 138.23 98.7385 138.23C99.0775 133.471 97.4368 132.427 96.3113 131.762V131.111H101.667L109.505 147.722L107.986 148.4L115.797 131.111H120.516V131.762C118.726 132.332 118.861 134.013 119.038 136.684L119.919 149.417C120.041 151.058 120.963 151.98 121.56 152.143V152.794H115.729V152.143C116.489 151.709 116.489 150.963 116.285 149.417L115.417 137.213H115.512L108.353 153.106H108.041L100.217 137.051H100.23Z" fill="#E8E8E3"/>
<path d="M212.371 115.504H209.931V114.853C210.581 114.528 210.92 113.47 210.988 113.118C211.056 112.765 211.097 112.426 211.11 112.101C211.192 109.145 211.232 106.989 211.232 105.619H200.452C200.52 108.86 200.561 111.016 200.574 112.101C200.588 112.426 200.642 112.779 200.71 113.118C200.778 113.47 201.13 114.528 201.781 114.853V115.504H195.801V114.853C196.452 114.528 196.764 113.47 196.818 113.118C196.886 112.765 196.94 112.426 196.94 112.101C196.913 108.955 196.94 100.493 196.94 97.2253C196.94 95.1235 196.452 94.7981 195.801 94.4727V93.8218H201.781V94.4727C201.13 94.7981 200.574 95.1235 200.574 97.2253C200.574 98.0525 200.506 100.154 200.452 103.517H211.205C211.137 100.249 211.097 98.161 211.083 97.2253C211.07 96.8999 211.015 96.5473 210.961 96.2083C210.893 95.8558 210.595 94.7981 209.944 94.4727V93.8218H215.924V94.4727C215.273 94.7981 214.921 95.8558 214.853 96.2083C214.785 96.5609 214.717 96.8999 214.717 97.2253C214.717 100.453 214.717 109.063 214.744 112.101C214.744 112.426 214.785 112.779 214.853 113.118C214.921 113.47 215.273 114.528 215.924 114.853V115.504H212.385H212.371Z" fill="#E8E8E3"/>
<path d="M125.588 133.756C125.249 133.417 125.086 133.024 125.086 132.549C125.086 132.075 125.249 131.709 125.588 131.356C125.927 131.017 126.32 130.841 126.794 130.841C127.269 130.841 127.635 131.017 127.974 131.356C128.313 131.695 128.476 132.102 128.476 132.549C128.476 133.038 128.313 133.431 127.988 133.77C127.662 134.095 127.269 134.258 126.794 134.258C126.32 134.258 125.927 134.095 125.588 133.756Z" fill="#E8E8E3"/>
<path d="M161.86 100.656C161.521 100.317 161.359 99.9239 161.359 99.4493C161.359 98.9747 161.521 98.6086 161.86 98.256C162.199 97.917 162.593 97.7407 163.067 97.7407C163.542 97.7407 163.908 97.917 164.247 98.256C164.586 98.595 164.749 99.0018 164.749 99.4493C164.749 99.9374 164.586 100.331 164.26 100.67C163.935 101.009 163.542 101.158 163.067 101.158C162.593 101.158 162.199 100.995 161.86 100.656Z" fill="#E8E8E3"/>
<path d="M186.919 261.694L186.349 255.945C186.227 254.738 186.539 253.965 187.353 253.694V253.396L184.817 253.463L181.888 260.474L178.43 253.653L176.003 253.721V254.019C176.518 254.304 177.278 254.751 177.196 256.908C177.196 256.908 177.034 260.731 176.993 261.979C176.952 262.847 176.573 263.091 176.342 263.226V263.525L177.305 263.498H177.454L178.417 263.471V263.172C177.983 262.752 178.051 262.264 178.064 261.952C178.119 260.935 178.213 258.48 178.268 257.152L181.603 263.511H181.739L184.736 256.311L185.278 261.735C185.387 262.426 185.4 262.765 185.061 262.969V263.267L186.173 263.24H186.58L187.705 263.199V262.901C187.421 262.833 187 262.426 186.919 261.694Z" fill="#E8E8E3"/>
<path d="M139.703 256.664C139.31 256.704 138.903 256.664 138.469 256.515C137.9 256.325 137.412 255.986 136.991 255.484C136.571 254.982 136.3 254.372 136.164 253.667C136.029 252.962 136.096 252.202 136.368 251.389C136.598 250.684 136.951 250.114 137.412 249.667C137.886 249.219 138.402 248.921 138.985 248.785C139.568 248.65 140.124 248.663 140.666 248.84C142.307 249.382 142.741 250.548 142.809 251.104L143.093 251.199L143.866 249.111C143.107 248.65 142.32 248.297 141.52 248.026C140.476 247.687 139.5 247.606 138.564 247.768C137.629 247.945 136.829 248.324 136.151 248.921C135.473 249.518 134.984 250.277 134.686 251.199C134.388 252.121 134.32 253.003 134.496 253.857C134.673 254.698 135.079 255.443 135.717 256.081C136.354 256.718 137.181 257.206 138.185 257.545C138.632 257.694 139.08 257.803 139.541 257.884C140.002 257.965 140.395 258.02 140.734 258.033L142.103 255.457L141.819 255.362C141.154 256.162 140.097 256.596 139.703 256.637V256.664Z" fill="#E8E8E3"/>
<path d="M161.386 260.935C161.128 261.193 160.843 261.369 160.532 261.491C160.22 261.613 159.867 261.64 159.46 261.586L158.525 261.477C158.253 261.45 158.05 261.369 157.928 261.247C157.792 261.125 157.738 260.948 157.765 260.718C157.86 259.579 157.955 258.562 158.077 257.667L161.006 258.264L161.481 257.192L158.186 256.786C158.362 255.497 158.525 254.413 158.674 253.545L160.084 253.721C160.491 253.775 160.83 253.87 161.115 253.992C161.399 254.128 161.63 254.291 161.82 254.507C162.01 254.711 162.172 254.969 162.321 255.253L162.62 255.294L163.257 253.151L157.738 252.473L156.64 252.338L156.599 252.636C156.721 252.826 156.803 253.002 156.843 253.206C156.897 253.396 156.911 253.572 156.925 253.735C156.925 253.897 156.925 254.046 156.925 254.196C156.789 255.66 156.694 256.664 156.558 257.694C156.491 258.236 156.382 258.942 156.179 260.338C156.152 260.487 156.111 260.637 156.07 260.786C156.016 260.935 155.948 261.098 155.853 261.274C155.758 261.45 155.623 261.613 155.46 261.776L155.419 262.074L156.518 262.21L162.05 262.901L162.647 259.904L162.349 259.864C161.969 260.338 161.643 260.704 161.386 260.948V260.935Z" fill="#E8E8E3"/>
<path d="M196.954 260.149C196.764 260.46 196.547 260.718 196.276 260.921C196.018 261.111 195.679 261.247 195.272 261.301L194.35 261.437C194.079 261.477 193.862 261.45 193.713 261.383C193.55 261.301 193.455 261.152 193.415 260.921C193.198 259.796 193.021 258.793 192.886 257.898L195.869 257.681L196.032 256.528L192.75 257.016C192.574 255.728 192.438 254.643 192.343 253.762L193.74 253.558C194.147 253.491 194.499 253.491 194.811 253.558C195.123 253.613 195.394 253.708 195.625 253.857C195.869 254.006 196.086 254.196 196.303 254.44L196.588 254.399L196.615 252.175L191.109 253.002L190.011 253.165L190.052 253.45C190.214 253.599 190.35 253.762 190.445 253.925C190.54 254.101 190.621 254.264 190.662 254.413C190.716 254.562 190.757 254.711 190.784 254.86C191.055 256.311 191.218 257.287 191.381 258.332C191.462 258.86 191.543 259.579 191.72 260.989C191.72 261.138 191.733 261.288 191.733 261.45C191.733 261.613 191.706 261.789 191.652 261.979C191.598 262.169 191.53 262.359 191.408 262.562L191.448 262.847L192.547 262.684L198.066 261.857L197.835 258.82L197.55 258.86C197.306 259.416 197.103 259.85 196.913 260.162L196.954 260.149Z" fill="#E8E8E3"/>
<path d="M214.324 246.737L214.446 247.008C214.798 247.062 215.056 247.184 215.205 247.374C215.354 247.564 215.409 247.876 215.354 248.283L214.826 251.429L211.992 249.612C211.775 249.463 211.612 249.313 211.517 249.164C211.422 249.015 211.381 248.852 211.422 248.703C211.449 248.54 211.544 248.378 211.693 248.201L211.571 247.93L208.629 249.191L208.751 249.463H208.764C208.968 249.544 209.158 249.625 209.32 249.693C209.483 249.774 209.659 249.856 209.835 249.951C210.012 250.046 210.188 250.168 210.391 250.303L214.202 252.785C214.446 253.341 214.663 253.883 214.866 254.385L215.137 255.09C215.192 255.226 215.232 255.375 215.273 255.537C215.314 255.687 215.341 255.876 215.327 256.066C215.327 256.27 215.3 256.473 215.232 256.69L215.341 256.961L216.358 256.527L216.792 256.337L217.822 255.904L217.714 255.632C217.524 255.537 217.348 255.415 217.199 255.266C217.049 255.131 216.941 254.981 216.86 254.846C216.778 254.71 216.697 254.575 216.629 254.439C216.249 253.639 215.978 253.029 215.598 252.147L216.358 247.727C216.426 247.307 216.48 246.981 216.548 246.751C216.615 246.52 216.71 246.262 216.86 245.964L216.738 245.693L214.297 246.737H214.324Z" fill="#E8E8E3"/>
<path d="M150.361 259.497C149.602 259.063 148.748 258.453 148.015 257.613C148.368 257.843 148.788 258.033 149.263 258.168C151.555 258.806 153.372 257.83 153.955 255.768C154.538 253.707 153.589 251.809 151.243 251.144C150.036 250.805 148.978 250.9 148.137 251.375C148.287 250.833 148.381 250.494 148.381 250.494L146.442 249.951L146.361 250.236C146.605 250.453 146.781 250.656 146.524 251.578C146.117 253.002 145.141 256.704 144.72 258.06C144.666 258.196 144.612 258.345 144.544 258.494C144.476 258.643 144.191 259.063 143.866 259.118L143.785 259.402L146.253 260.094L146.334 259.809C146.09 259.592 146.063 259.091 146.076 258.928C146.076 258.765 146.103 258.616 146.144 258.467C146.171 258.331 146.375 257.653 146.619 256.745C146.822 257.721 147.731 260.379 151.446 261.708L153.073 259.863L152.843 259.674C151.934 260.311 150.443 259.579 150.348 259.524L150.361 259.497ZM150.646 251.782C152.178 252.216 152.761 253.721 152.3 255.389C151.839 257.016 150.809 257.775 149.304 257.355C147.758 256.921 147.175 255.429 147.649 253.748C148.11 252.121 149.141 251.361 150.646 251.782Z" fill="#E8E8E3"/>
<path d="M208.805 258.196C207.517 258.358 205.822 258.277 204.303 257.708C204.696 257.735 205.103 257.708 205.537 257.626C207.869 257.165 209.049 255.443 208.629 253.341C208.208 251.24 206.5 249.978 204.1 250.467C202.879 250.711 201.971 251.28 201.442 252.08C201.333 251.524 201.266 251.185 201.266 251.185L199.299 251.579L199.354 251.863C199.665 251.945 199.923 252.053 200.113 252.989C200.398 254.44 201.211 258.182 201.455 259.579C201.469 259.728 201.482 259.877 201.496 260.04C201.496 260.203 201.442 260.704 201.184 260.908L201.238 261.193L203.747 260.691L203.693 260.406C203.367 260.325 203.123 259.877 203.069 259.728C203.001 259.579 202.961 259.43 202.92 259.294C202.893 259.159 202.744 258.426 202.554 257.464C203.3 258.209 206.106 260.555 210.581 259.457L211.151 256.853L210.852 256.786C210.5 257.681 209.605 258.114 208.832 258.209L208.805 258.196ZM203.855 251.307C205.415 250.995 206.622 252.067 206.961 253.775C207.3 255.43 206.717 256.569 205.184 256.88C203.611 257.192 202.418 256.135 202.079 254.413C201.754 252.758 202.323 251.619 203.855 251.307Z" fill="#E8E8E3"/>
<path d="M173.4 262.046L170.769 253.585L169.562 253.53L168.722 253.503L167.176 253.436V253.734L167.162 253.883C167.881 253.91 168.423 254.33 168.071 255.293L165.698 261.734C165.467 262.344 165.196 262.765 164.64 262.86V263.158L167.311 263.267V262.968C167.027 262.968 166.593 262.575 166.891 261.775L167.257 260.785L171.488 260.961L171.813 261.992C172.044 262.792 171.61 263.144 171.312 263.131V263.429L174.376 263.551V263.253C174.01 263.185 173.644 262.846 173.4 262.046ZM167.61 259.836L169.535 254.615L171.203 259.985L167.61 259.836Z" fill="#E8E8E3"/>
<path d="M103.878 181.771C104 181.514 104.068 181.107 104.068 180.592V176.334C104.068 175.818 104 175.398 103.878 175.154V175.113H107.471V176.022H107.417C107.051 175.791 106.414 175.669 105.654 175.669H105.003V178.069H105.993C106.509 178.069 106.929 177.988 107.173 177.88H107.214V178.829H107.173C106.915 178.707 106.509 178.639 105.993 178.639H105.003V180.605C105.003 181.12 105.085 181.541 105.193 181.785V181.825H103.878V181.785V181.771Z" fill="#E8E8E3"/>
<path d="M106.603 190.287L105.858 188.674C105.613 188.158 105.288 187.941 104.732 187.941H104.542V189.881C104.542 190.396 104.624 190.816 104.732 191.06V191.101H103.417V191.06C103.539 190.803 103.607 190.396 103.607 189.881V185.623C103.607 185.107 103.539 184.687 103.417 184.443V184.402H105.261C106.685 184.402 107.512 185.04 107.512 186.097C107.512 187.074 106.82 187.63 105.641 187.697C106.251 187.847 106.685 188.24 106.983 188.891L107.593 190.206C107.742 190.518 107.905 190.721 108.176 190.911V190.952C108 191.087 107.81 191.142 107.58 191.142C107.146 191.142 106.888 190.911 106.59 190.274L106.603 190.287ZM105.166 187.386C106.061 187.386 106.536 186.965 106.536 186.179C106.536 185.392 106.075 184.972 105.193 184.972H104.556V187.386H105.166Z" fill="#E8E8E3"/>
<path d="M103.037 197.053C103.037 194.789 103.878 193.596 105.478 193.596C107.078 193.596 107.919 194.789 107.919 197.053C107.919 199.318 107.078 200.511 105.478 200.511C103.878 200.511 103.037 199.318 103.037 197.053ZM106.902 197.053C106.902 195.087 106.441 194.179 105.464 194.179C104.488 194.179 104.027 195.087 104.027 197.053C104.027 199.02 104.488 199.928 105.464 199.928C106.441 199.928 106.902 199.02 106.902 197.053Z" fill="#E8E8E3"/>
<path d="M103.634 204.349L103.268 207.875C103.214 208.458 103.214 209.095 103.322 209.651V209.692H102.359C102.536 208.932 102.644 208.349 102.725 207.631L103.064 204.458C103.119 203.847 103.105 203.346 103.051 203.047V202.993H104.19L105.465 207.739L106.726 202.993H107.892V203.047C107.824 203.346 107.81 203.847 107.878 204.458L108.217 207.631C108.299 208.349 108.407 208.946 108.583 209.692H107.255V209.651C107.363 209.095 107.363 208.458 107.309 207.875L106.943 204.322L105.505 209.678H105.098L103.661 204.336L103.634 204.349Z" fill="#E8E8E3"/>
<path d="M245.295 175.927L246.99 175.127H247.356V180.537C247.383 181.161 247.464 181.554 247.614 181.785V181.826H246.163V181.785C246.312 181.554 246.393 181.161 246.42 180.537V176.063H245.281V175.927H245.295Z" fill="#E8E8E3"/>
<path d="M247.871 187.521C247.532 188.226 246.881 188.579 246.23 188.579C245.268 188.579 244.603 187.82 244.603 186.545C244.603 185.202 245.349 184.294 246.637 184.294C248.034 184.294 248.807 185.365 248.807 187.494C248.807 189.772 247.722 191.21 246.027 191.21C245.39 191.21 244.915 190.993 244.59 190.437L244.617 190.369C245.091 190.586 245.417 190.667 245.796 190.667C247.152 190.667 247.858 189.65 247.858 187.548V187.508L247.871 187.521ZM246.624 187.914C247.085 187.914 247.505 187.684 247.858 187.277C247.817 185.935 247.424 184.891 246.556 184.891C245.946 184.891 245.498 185.433 245.498 186.409C245.498 187.386 245.946 187.914 246.624 187.914Z" fill="#E8E8E3"/>
<path d="M244.698 200.091V198.911H244.739C245.186 199.576 245.742 199.887 246.407 199.887C247.247 199.887 247.722 199.277 247.722 198.314C247.722 197.257 247.247 196.674 246.407 196.674C245.864 196.674 245.417 196.904 245.01 197.392L244.888 197.474C245.078 196.253 245.173 194.979 245.213 193.704H248.454V194.572H245.715C245.674 195.263 245.62 195.901 245.552 196.443C245.864 196.158 246.312 195.982 246.813 195.982C247.98 195.982 248.685 196.85 248.685 198.192C248.685 199.535 247.898 200.498 246.38 200.498C245.891 200.498 245.322 200.416 244.685 200.091H244.698Z" fill="#E8E8E3"/>
<path d="M247.18 206.031L247.342 206.125C248.332 206.709 248.739 207.237 248.739 208.01C248.739 209.095 247.953 209.76 246.705 209.76C245.457 209.76 244.685 209.095 244.685 208.119C244.685 207.373 245.159 206.776 246.176 206.437C245.308 205.922 244.929 205.407 244.929 204.634C244.929 203.59 245.62 202.925 246.732 202.925C247.844 202.925 248.495 203.522 248.495 204.417C248.495 205.176 248.02 205.732 247.18 206.031ZM246.719 209.109C247.424 209.109 247.885 208.77 247.885 208.146C247.885 207.685 247.627 207.292 247.085 206.98L246.393 206.573C245.824 206.939 245.525 207.4 245.525 207.97C245.525 208.661 245.932 209.109 246.732 209.109H246.719ZM246.597 205.692L247.003 205.936C247.397 205.475 247.641 205.027 247.641 204.539C247.641 203.929 247.261 203.549 246.678 203.549C246.095 203.549 245.756 203.915 245.756 204.498C245.756 204.986 246.027 205.38 246.583 205.705L246.597 205.692Z" fill="#E8E8E3"/>
<path d="M127.215 100.954H126.333L120.936 103.869L121.248 104.141L126.781 102.798L132.313 104.141L132.625 103.869L127.228 100.954H127.215Z" fill="#E8E8E3"/>
<path d="M239.301 121.389L233.064 103.829H224.779V104.805C226.365 104.805 227.369 106.378 226.677 108.534L222.541 121.349C222.107 122.705 221.212 124.603 220.006 124.874V125.525H225.945V124.874C225.145 124.386 224.562 123.22 225.158 121.43L225.606 120.047H234.976L235.545 121.633C236.128 123.396 235.667 124.413 234.786 124.874V125.525H241.905V124.874C241.051 124.752 239.912 123.152 239.288 121.403L239.301 121.389ZM226.297 117.931L230.081 106.229L234.23 117.931H226.297Z" fill="#E8E8E3"/>
<path d="M230.528 98.9473H229.647L224.25 101.863L224.562 102.134L230.094 100.791L235.627 102.134L235.938 101.863L230.542 98.9473H230.528Z" fill="#E8E8E3"/>
<path d="M132.137 106.934C130.51 106.012 128.72 105.551 126.726 105.551C124.638 105.551 122.794 106.053 121.194 107.043C119.594 108.033 118.36 109.402 117.478 111.165C116.597 112.928 116.163 114.908 116.163 117.118C116.163 119.165 116.638 120.996 117.573 122.637C118.509 124.264 119.784 125.552 121.397 126.474C123.011 127.41 124.787 127.871 126.726 127.871C128.774 127.871 130.604 127.369 132.205 126.366C133.818 125.362 135.079 123.979 136.001 122.203C136.923 120.427 137.384 118.433 137.384 116.223C137.384 114.203 136.91 112.372 135.974 110.758C135.039 109.131 133.75 107.87 132.137 106.948V106.934ZM133.14 121.701C132.557 122.894 131.784 123.817 130.835 124.481C129.872 125.145 128.842 125.471 127.716 125.471C126.211 125.471 124.828 125.037 123.567 124.156C122.306 123.288 121.316 122.094 120.611 120.576C119.892 119.071 119.54 117.403 119.54 115.599C119.54 114.175 119.811 112.874 120.34 111.707C120.882 110.541 121.628 109.619 122.591 108.955C123.553 108.29 124.625 107.965 125.791 107.965C127.296 107.965 128.679 108.385 129.94 109.226C131.201 110.067 132.191 111.233 132.91 112.724C133.628 114.216 133.994 115.87 133.994 117.674C133.994 119.165 133.71 120.508 133.127 121.701H133.14Z" fill="#E8E8E3"/>
<path d="M149.25 110.759C147.934 110.759 146.66 110.379 145.426 109.606C144.192 108.847 143.202 107.531 142.442 106.121C141.683 104.711 141.29 103.07 141.29 101.199C141.29 99.5715 141.629 98.1206 142.307 96.8595C142.985 95.5985 143.934 94.5137 145.046 93.8221C146.158 93.1306 147.677 92.6695 148.938 92.6695C152.775 92.6695 154.104 95.0561 154.633 96.1815H155.284L155.474 91.2593C153.548 90.8254 151.663 90.6084 149.806 90.6084C147.392 90.6084 145.263 91.1101 143.405 92.1136C141.561 93.117 140.124 94.473 139.12 96.2087C138.117 97.9443 137.602 99.8699 137.602 102.012C137.602 104.155 138.076 106.067 139.039 107.708C140.002 109.362 141.371 110.636 143.148 111.545C144.924 112.454 146.985 112.915 149.344 112.915C150.375 112.915 151.406 112.847 152.436 112.698C153.467 112.548 154.335 112.386 155.04 112.196L156.152 105.85H155.501C154.674 107.992 152.545 110.759 149.25 110.759Z" fill="#E8E8E3"/>
<path d="M182.038 107.856C180.723 107.856 179.448 107.476 178.214 106.704C176.98 105.944 175.99 104.629 175.231 103.219C174.471 101.808 174.078 100.168 174.078 98.2964C174.078 96.6692 174.417 95.2183 175.095 93.9572C175.773 92.6961 176.722 91.6113 177.834 90.9198C178.946 90.2282 180.465 89.7672 181.726 89.7672C185.563 89.7672 186.892 92.1537 187.421 93.2792H188.072L188.262 88.3569C186.336 87.923 184.452 87.7061 182.594 87.7061C180.18 87.7061 178.051 88.2078 176.194 89.2112C174.349 90.2146 172.912 91.5706 171.909 93.3063C170.892 95.0284 170.39 96.9675 170.39 99.11C170.39 101.252 170.864 103.164 171.827 104.805C172.79 106.459 174.16 107.734 175.936 108.643C177.712 109.551 179.773 110.012 182.133 110.012C183.163 110.012 184.194 109.944 185.224 109.795C186.255 109.646 187.123 109.483 187.828 109.294L188.94 102.947H188.289C187.462 105.09 185.333 107.856 182.038 107.856Z" fill="#E8E8E3"/>
<path d="M248.834 131.179V131.83C249.39 132.115 249.986 132.345 249.986 134.583V145.851C249.986 147.343 249.579 148.522 248.766 149.404C247.952 150.285 246.773 150.719 245.213 150.719C244.115 150.719 243.138 150.502 242.271 150.055C241.403 149.607 240.725 148.997 240.237 148.21C239.748 147.424 239.504 146.502 239.504 145.458V134.583C239.504 132.657 239.965 132.115 240.589 131.83V131.179H234.826V131.83C235.314 132.115 235.884 132.657 235.884 134.583V145.485C235.884 147.098 236.209 148.482 236.874 149.634C237.538 150.787 238.487 151.668 239.721 152.265C240.955 152.861 242.433 153.16 244.155 153.16C245.878 153.16 247.234 152.861 248.44 152.265C249.647 151.668 250.583 150.8 251.234 149.661C251.885 148.522 252.21 147.153 252.21 145.539V134.569C252.21 133.091 252.454 132.115 253.146 131.816V131.166H248.834V131.179Z" fill="#E8E8E3"/>
<path d="M218.541 212.254C218.324 211.319 218.066 210.437 217.551 209.624C216.859 208.552 216.087 207.508 215.029 206.803C214.758 206.6 214.256 206.274 213.958 206.152C213.781 206.098 213.564 205.99 213.361 205.935C212.913 205.8 212.032 205.813 211.558 205.84C211.083 205.854 210.649 206.003 210.188 206.112C208.154 206.708 206.378 207.793 205.415 209.746C204.981 210.614 204.628 211.603 204.371 212.553C204.127 213.407 204.1 214.166 204.072 215.061C204.059 215.875 203.991 216.865 204.154 217.651C204.276 218.221 204.371 218.79 204.493 219.373C204.669 220.228 205.022 221.055 205.456 221.787C205.849 222.479 206.459 223.224 207.096 223.726C207.273 223.862 207.367 223.97 207.544 224.106C208.14 224.621 208.723 224.757 209.442 225.028C209.795 225.163 210.174 225.407 210.568 225.421C210.92 225.435 211.313 225.421 211.68 225.421C211.896 225.421 212.168 225.435 212.385 225.421C212.52 225.421 212.724 225.34 212.859 225.299C213.51 225.123 214.039 224.879 214.663 224.567C215.449 224.133 216.534 223.401 217.09 222.668C217.863 221.665 218.337 220.553 218.514 219.292C218.636 218.438 218.717 217.597 218.771 216.743C218.731 215.265 218.893 213.678 218.527 212.214V212.254H218.541ZM214.486 210.247C214.69 210.451 214.785 210.681 214.798 210.953C214.798 211.197 214.798 211.4 214.636 211.603C214.636 211.603 214.5 211.739 214.473 211.766C214.459 211.902 214.554 211.983 214.595 212.105C214.676 212.322 214.649 212.526 214.595 212.742C214.541 212.987 214.419 213.258 214.215 213.393C213.741 213.705 213.252 213.556 212.886 213.136C212.764 212.973 212.669 212.783 212.547 212.648C212.534 212.634 212.452 212.566 212.425 212.553C212.425 212.512 212.466 212.498 212.48 212.458C212.642 212.187 212.574 211.495 212.493 211.17C212.452 211.007 212.358 210.953 212.452 210.79C212.547 210.627 212.927 210.234 213.09 210.112C213.564 209.759 214.039 209.868 214.459 210.247H214.486ZM212.29 211.224C212.371 211.4 212.425 211.915 212.385 212.092C212.344 212.309 212.127 212.471 211.937 212.526C211.761 212.58 211.327 212.566 211.164 212.485C211.042 212.431 211.029 212.241 211.002 212.132C210.947 211.712 211.002 211.088 211.449 210.912C211.707 210.817 212.019 210.912 212.195 211.129C212.195 211.129 212.276 211.224 212.276 211.264V211.224H212.29ZM211.069 212.702C211.069 212.702 211.246 212.756 211.327 212.783C211.53 212.865 211.815 212.865 212.019 212.783C212.1 212.742 212.263 212.648 212.33 212.702C212.344 212.702 212.344 212.756 212.371 212.797C212.588 213.326 212.846 213.502 213.361 213.732C213.415 213.746 213.524 213.814 213.497 213.895C213.497 213.936 213.239 214.058 213.198 214.098C212.954 214.193 212.778 214.261 212.52 214.234C212.222 214.234 211.91 214.058 211.707 213.841C211.53 213.976 211.354 214.112 211.151 214.221C210.839 214.356 210.5 214.343 210.188 214.18C210.025 214.098 209.93 214.004 209.917 213.827C209.917 213.814 210.134 213.732 210.174 213.705C210.513 213.543 210.744 213.176 210.92 212.851C210.961 212.77 210.974 212.675 211.096 212.675L211.056 212.715L211.069 212.702ZM210.378 209.285C210.649 209.122 210.947 209.081 211.246 209.203C211.381 209.258 211.503 209.38 211.625 209.475C211.761 209.339 211.964 209.23 212.141 209.176C212.629 209.013 213.049 209.122 213.225 209.61C213.266 209.705 213.063 209.773 212.981 209.814C212.737 209.949 212.642 210.058 212.493 210.247C212.412 210.342 212.33 210.546 212.235 210.627C212.195 210.668 212.181 210.681 212.113 210.681C211.937 210.681 211.802 210.519 211.625 210.519H211.463C211.341 210.519 211.083 210.736 210.974 210.681C210.934 210.668 210.812 210.369 210.771 210.288C210.635 210.03 210.391 209.854 210.12 209.759C210.079 209.759 210.039 209.759 210.025 209.705C210.012 209.529 210.188 209.352 210.337 209.271H210.378V209.285ZM208.52 210.885C208.534 210.586 208.601 210.451 208.818 210.247C209.266 209.827 209.768 209.732 210.256 210.166C210.378 210.261 210.785 210.681 210.825 210.817C210.866 210.939 210.785 211.02 210.771 211.129C210.69 211.427 210.635 212.159 210.771 212.417C210.785 212.458 210.852 212.471 210.825 212.539C210.825 212.553 210.744 212.593 210.73 212.62C210.595 212.756 210.513 212.973 210.378 213.136C210.161 213.393 209.863 213.61 209.483 213.556C209.144 213.502 209.008 213.339 208.832 213.081C208.832 213.081 208.818 213.081 208.818 213.068C208.615 212.797 208.574 212.431 208.696 212.105C208.71 212.024 208.778 211.97 208.791 211.888C208.791 211.766 208.696 211.725 208.629 211.644C208.466 211.468 208.466 211.156 208.493 210.912H208.507V210.898L208.52 210.885ZM208.737 217.271C208.696 216.973 208.696 216.743 208.696 216.444C208.696 216.241 208.696 216.065 208.534 215.929C208.276 215.712 207.978 215.929 207.72 215.983C207.028 216.187 206.54 215.807 206.106 215.332C205.849 215.034 205.618 214.736 205.415 214.397C205.198 214.058 205.076 213.882 205.076 213.448C205.076 213.285 205.13 213.204 205.239 213.095C205.727 212.526 206.635 212.526 207.313 212.756C207.801 212.932 208.262 213.136 208.642 213.488C208.818 213.665 208.995 213.882 209.171 214.058C209.591 214.478 210.079 214.749 210.608 215.021C210.825 215.143 211.002 215.156 211.137 215.4C211.178 215.482 211.218 215.658 211.191 215.739C211.137 215.916 210.893 216.173 210.798 216.349C210.676 216.566 210.527 217.041 210.5 217.285C210.459 217.733 210.581 218.397 210.066 218.627C209.849 218.722 209.754 218.722 209.551 218.587C209.171 218.343 208.846 217.692 208.764 217.258H208.723L208.737 217.271ZM213.646 220.322C213.442 220.417 213.198 220.499 212.995 220.377C212.791 220.282 212.697 220.078 212.602 219.902C212.547 220.038 212.547 220.255 212.547 220.417C212.547 220.512 212.71 220.811 212.791 220.851C212.873 220.865 213.09 220.838 213.185 220.851C213.307 220.851 213.361 220.946 213.32 221.068C213.225 221.407 212.507 221.719 212.195 221.801C211.747 221.923 211.015 221.882 210.568 221.706C210.364 221.624 209.971 221.434 209.89 221.217C209.835 221.041 209.944 220.946 210.107 220.906C210.31 220.865 210.486 220.96 210.595 220.729C210.69 220.526 210.717 220.2 210.554 220.038C210.554 220.35 210.079 220.553 209.822 220.485C209.646 220.431 209.401 220.268 209.347 220.065C209.185 219.577 209.442 219.102 209.917 218.939C210.269 218.817 210.663 218.899 211.002 219.075C211.164 219.156 211.381 219.346 211.558 219.373H211.829C211.91 219.373 212.046 219.238 212.1 219.17C212.303 219.034 212.534 218.872 212.791 218.858C213.13 218.817 213.429 218.899 213.646 219.156C213.917 219.468 214.08 220.119 213.632 220.336L213.646 220.322ZM218.229 213.651C218.188 213.99 218.066 214.126 217.917 214.397C217.714 214.709 217.524 215.007 217.266 215.292C216.832 215.78 216.344 216.16 215.625 215.983C215.286 215.902 215.015 215.644 214.731 215.983C214.595 216.16 214.649 216.634 214.636 216.851C214.595 217.366 214.432 217.882 214.12 218.275C213.985 218.438 213.7 218.695 213.483 218.655C213.225 218.614 213.049 218.438 212.954 218.207C212.859 217.949 212.9 217.516 212.873 217.244C212.859 217 212.697 216.553 212.574 216.349C212.493 216.187 212.222 215.861 212.181 215.739C212.127 215.482 212.263 215.292 212.48 215.17C212.737 215.007 213.076 214.899 213.347 214.736C213.958 214.383 214.256 213.99 214.731 213.515C215.11 213.163 215.585 212.946 216.059 212.783C216.751 212.539 217.754 212.566 218.215 213.217C218.31 213.353 218.297 213.515 218.27 213.692H218.229V213.678V213.651Z" fill="#938F8A"/>
<path d="M222.527 244.08V244.622H219.91V244.08H222.527ZM221.538 244.08V247.971H220.887V244.08H221.538Z" fill="#E8E8E3"/>
<path d="M223.178 244.08H223.721L223.802 246.548V247.958H223.165V244.066L223.178 244.08ZM223.395 244.08H223.978L224.873 246.968L225.768 244.08H226.311L225.117 247.972H224.629L223.395 244.08ZM226.04 244.08H226.582V247.972H225.945V246.561L226.026 244.094L226.04 244.08Z" fill="#E8E8E3"/>
</svg>
