<svg width="351" height="351" viewBox="0 0 351 351" fill="none" xmlns="http://www.w3.org/2000/svg">
<g clip-path="url(#clip0_9597_1668)">
<path d="M189.994 143.248C184.085 119.186 183.659 104.072 218.659 104.072C238.574 104.072 247.551 108.675 248.432 122.879C248.659 141.686 235.563 144.981 235.79 163.788C236.216 190.265 259 191.373 259 220.237C258.347 240.152 246.301 247.822 231.869 247.822C217.438 247.822 206.926 239.953 207.352 220.464C206.926 191.799 228.574 193.76 229.028 164.896C228.602 146.288 221.756 139.953 214.341 139.953C202.523 139.953 193.347 158.106 193.546 175.407C193.318 191.601 197.921 203.646 198.148 220.493C197.921 238.22 188.744 246.089 175.818 246.089C162.892 246.089 153.943 238.22 153.943 220.493C153.943 202.765 158.318 191.601 158.318 175.407C158.318 158.135 149.114 139.953 137.523 139.953C129.852 139.953 123.034 146.288 123.034 164.896C123.034 193.788 144.71 191.799 144.71 220.464C144.71 239.953 134.852 247.822 119.995 247.822C105.137 247.822 93.2332 240.18 93.0059 220.265C92.5798 191.373 115.335 190.294 116.216 163.817C115.989 145.01 102.892 141.714 103.574 122.907C104 108.675 112.949 104.072 133.318 104.072C167.892 104.072 167.466 119.157 161.983 143.248C157.608 162.282 163.943 179.129 175.989 179.129C188.034 179.129 193.943 162.282 189.994 143.248Z" fill="#E8E8E3"/>
</g>
<defs>
<clipPath id="clip0_9597_1668">
<rect width="351" height="351" fill="white"/>
</clipPath>
</defs>
</svg>
