<svg width="351" height="351" viewBox="0 0 351 351" fill="none" xmlns="http://www.w3.org/2000/svg">
<path d="M185.855 116.299H211.343V163.799H258.347V116.299H284V234.636H258.347V184.984H211.343V234.636H185.855V116.299Z" fill="#E8E8E3"/>
<path d="M116.424 237.118C104.397 237.118 93.97 234.47 85.143 229.174C76.4264 223.878 69.6958 216.596 64.9513 207.327C60.3171 197.949 58 187.301 58 175.385C58 163.468 60.3171 152.876 64.9513 143.608C69.6958 134.229 76.4264 126.947 85.143 121.761C93.97 116.465 104.397 113.816 116.424 113.816C128.34 113.816 138.712 116.465 147.539 121.761C156.366 126.947 163.096 134.229 167.731 143.608C172.475 152.876 174.847 163.468 174.847 175.385C174.847 187.301 172.475 197.949 167.731 207.327C163.096 216.596 156.366 223.878 147.539 229.174C138.712 234.47 128.34 237.118 116.424 237.118ZM116.424 216.099C124.037 216.099 130.216 214.334 134.96 210.803C139.815 207.162 143.291 202.307 145.387 196.238C147.594 190.17 148.697 183.219 148.697 175.385C148.697 167.661 147.594 160.765 145.387 154.696C143.291 148.628 139.815 143.828 134.96 140.297C130.216 136.656 124.037 134.836 116.424 134.836C108.81 134.836 102.576 136.656 97.7215 140.297C92.977 143.828 89.5565 148.628 87.4601 154.696C85.3637 160.655 84.3155 167.551 84.3155 175.385C84.3155 183.219 85.3637 190.17 87.4601 196.238C89.5565 202.307 92.977 207.162 97.7215 210.803C102.576 214.334 108.81 216.099 116.424 216.099Z" fill="#E8E8E3"/>
</svg>
