<svg width="351" height="351" viewBox="0 0 351 351" fill="none" xmlns="http://www.w3.org/2000/svg">
<g clip-path="url(#clip0_9597_1516)">
<path fill-rule="evenodd" clip-rule="evenodd" d="M211.995 160.29C211.995 160.912 211.62 161.472 211.046 161.709C210.472 161.947 209.812 161.816 209.372 161.376C202.755 154.759 185.427 137.431 178.71 130.714C177.21 129.214 174.779 129.214 173.279 130.714C160.16 143.833 103.456 200.537 90.9388 213.054C90.3906 213.603 89.6038 213.838 88.8446 213.682C88.0855 213.526 87.4557 212.998 87.1689 212.278C86.3705 210.157 85.1784 206.261 83.5253 198.52C69.1103 131.023 118.339 85.2199 169.86 80.8638C244.25 74.5743 288.607 153.644 264.855 212.348C264.562 213.059 263.933 213.578 263.179 213.729C262.424 213.88 261.644 213.644 261.1 213.1C257.698 209.702 251.622 203.626 249.119 201.123C248.399 200.403 247.995 199.426 247.995 198.408V149.839C247.995 148.82 247.59 147.844 246.87 147.123C246.15 146.403 245.173 145.999 244.155 145.999C237.236 145.999 222.754 145.999 215.835 145.999C213.714 145.999 211.995 147.718 211.995 149.839C211.995 152.926 211.995 157.238 211.995 160.29Z" fill="#ECECEC"/>
<path fill-rule="evenodd" clip-rule="evenodd" d="M194 224V253.952C194 263.887 185.934 271.952 176 271.952C166.066 271.952 158 263.887 158 253.952V224C158 214.066 166.066 206 176 206C185.934 206 194 214.066 194 224Z" fill="#ECECEC"/>
</g>
<defs>
<clipPath id="clip0_9597_1516">
<rect width="192" height="192" fill="white" transform="translate(80 80)"/>
</clipPath>
</defs>
</svg>
