<svg width="351" height="351" viewBox="0 0 351 351" fill="none" xmlns="http://www.w3.org/2000/svg">
<g clip-path="url(#clip0_9597_1783)">
<path d="M215.604 150.028C229.003 161.322 237.565 178.177 237.565 197.055V197.081C237.552 231.098 209.911 258.667 175.794 258.667C172.445 258.667 169.166 258.395 165.948 257.879L215.604 150.028ZM114.729 206.141C118.65 232.605 139.417 253.578 165.824 257.858L165.88 206.141H114.729ZM135.961 201.972L185.617 94.1214C182.399 93.6075 179.12 93.3335 175.771 93.3335C141.654 93.3335 114.013 120.902 114 154.919V154.943C114 173.824 122.562 190.678 135.961 201.972ZM236.838 145.86C232.918 119.395 212.148 98.4219 185.741 94.1425L185.688 145.86H236.836H236.838Z" fill="#E8E8E3"/>
<path d="M230.7 106.442C227.011 106.442 224.115 103.535 224.115 99.8918C224.115 96.2489 227.014 93.3569 230.7 93.3569C234.386 93.3569 237.285 96.2645 237.285 99.8892C237.285 103.514 234.37 106.44 230.7 106.44V106.442ZM236.355 99.8918C236.355 96.773 233.756 94.2879 230.7 94.2879C227.644 94.2879 225.03 96.7756 225.03 99.8918C225.03 103.008 227.646 105.514 230.7 105.514C233.753 105.514 236.355 103.026 236.355 99.8918ZM228.504 96.2671H230.329C231.014 96.2671 231.733 96.301 232.313 96.7391C232.804 97.0885 233.05 97.6674 233.05 98.3506C233.05 98.9973 232.804 99.6128 232.331 99.9804C232.104 100.137 231.806 100.278 231.453 100.366L233.91 103.449V103.553H232.663L230.276 100.489H229.398V103.449L229.309 103.553H228.501L228.397 103.449V96.3714L228.501 96.2671H228.504ZM229.453 99.558H230.19C231.068 99.558 231.981 99.4172 231.981 98.3324C231.981 97.2476 231.032 97.1772 230.172 97.1772H229.453V99.558Z" fill="#E8E8E3"/>
</g>
<defs>
<clipPath id="clip0_9597_1783">
<rect width="124" height="165.333" fill="white" transform="translate(114 93.3335)"/>
</clipPath>
</defs>
</svg>
