<svg width="351" height="351" viewBox="0 0 351 351" fill="none" xmlns="http://www.w3.org/2000/svg">
<g clip-path="url(#clip0_9597_1727)">
<path d="M80.8633 208.609C92.2969 208.89 104.573 208.674 116.103 208.683L177.324 208.82L199.617 208.865C208.73 208.894 217.879 209.036 226.838 210.335C239.034 212.104 250.997 216.51 250.369 230.92C250.162 235.67 248.707 240.282 245.11 243.702C234.487 252.972 215.015 252.631 201.711 252.627C197.043 252.625 192.498 252.748 187.994 252.69C186.29 252.198 179.645 252.398 177.438 252.405L163.413 252.412L154.336 252.441C153.206 252.449 151.182 252.36 150.153 252.485L150.066 252.718C145.841 252.935 140.534 252.797 136.26 252.788L114.589 252.809L93.8293 252.844C90.594 252.85 86.5236 253.02 83.3738 252.839C82.1771 252.034 81.5523 251.216 80.8633 250.008V235.799C84.5041 235.58 89.6626 235.745 93.4843 235.734L118.79 235.693L186.383 235.402L204.34 235.379C207.656 235.371 210.948 235.328 214.262 235.283C218.347 235.228 223.192 234.913 225.351 230.79C225.253 229.247 225.166 228.434 224.079 227.173C222.884 225.787 219.598 224.74 217.788 224.549C211.406 223.875 204.877 223.808 198.477 223.788L176.104 223.74L112.787 223.71L92.2485 223.708C88.5279 223.709 84.5611 223.793 80.8633 223.679V208.609Z" fill="#E8E8E3"/>
<path d="M270 140.187C262.985 140.38 254.931 140.175 247.851 140.166L204.282 140.141L171.383 140.115C164.903 140.148 158.423 140.112 151.944 140.008C140.33 139.899 127.661 139.621 116.353 136.665C114.245 136.114 111.131 134.727 109.214 133.665C99.9328 128.524 99.5069 112.56 107.396 106.072C112.244 102.086 118.884 100.332 124.95 99.3473C138.889 97.478 153.191 97.8362 167.227 97.8321L219.25 97.8979L252.152 97.9055L260.978 97.894C263.021 97.8767 265.232 97.7748 267.246 97.9349C268.636 98.7867 269.217 99.3457 270 100.729V114.824C259.702 115.044 248.681 114.825 238.309 114.824L175.371 114.826L151.36 114.826C145.477 114.822 138.62 114.645 132.829 115.475C123.723 116.781 125.92 123.846 133.843 124.279C141.391 125.086 148.699 125.019 156.257 125.028L182.5 125.044L270 125.161V140.187Z" fill="#E8E8E3"/>
<path d="M270 169.191C266.538 169.072 262.576 169.163 259.08 169.167L238.069 169.211L173.574 169.295L153.775 169.319C144.478 169.315 135.041 169.163 125.839 167.857C119.636 166.976 112.131 164.975 107.305 160.999C102.931 157.394 100.96 151.468 100.714 145.994C100.685 145.339 100.576 145.223 100.954 144.77C101.622 144.643 107.201 144.742 108.233 144.744C114.014 144.769 119.794 144.75 125.574 144.687C125.545 149.714 130.219 151.168 134.469 151.68C141.514 152.528 148.781 152.308 155.876 152.311L183.772 152.307L244.488 152.135C252.944 152.094 261.563 152.202 270 152.056V169.191Z" fill="#E8E8E3"/>
<path d="M80.8633 181.319C92.9347 181.452 105.007 181.489 117.079 181.43L177.053 181.472L199.467 181.505C203.812 181.514 208.08 181.499 212.422 181.702C229.216 182.486 249.236 184.358 249.352 205.799C247.465 206.065 243.851 205.889 241.812 205.923C236.107 206.019 230.137 205.724 224.445 205.928C224.296 204.131 223.924 202.497 222.447 201.305C220.481 199.717 217.064 198.894 214.586 198.727C207.203 198.233 199.675 198.38 192.285 198.385L157.06 198.367L106.85 198.351L90.2209 198.345C87.2603 198.344 83.7816 198.263 80.8633 198.386V181.319Z" fill="#E8E8E3"/>
<path d="M150.066 252.718L150.153 252.485C151.182 252.36 153.206 252.449 154.336 252.441L163.413 252.412L177.438 252.404C179.645 252.398 186.29 252.198 187.994 252.69C182.428 252.867 176.115 252.748 170.498 252.743C163.861 252.739 156.676 252.903 150.066 252.718Z" fill="#E8E8E3"/>
</g>
<defs>
<clipPath id="clip0_9597_1727">
<rect width="189.137" height="155.688" fill="white" transform="translate(80.8633 97.6558)"/>
</clipPath>
</defs>
</svg>
