<svg width="351" height="351" viewBox="0 0 351 351" fill="none" xmlns="http://www.w3.org/2000/svg">
<g clip-path="url(#clip0_9597_1638)">
<path d="M154.59 162.089H149.793V161.478H151.462V151.951H148.123V153.279H147.32V150.645H148.123V151.108H156.259V150.645H157.062V153.279H156.259V151.951H152.92V161.478H154.59V162.089Z" fill="#E8E8E3"/>
<path d="M169.763 162.089H165.79V161.478H167.037V156.904H160.781V161.478H162.029V162.089H158.056V161.478H159.303V151.741H158.056V151.129H162.029V151.741H160.781V156.167H167.037V151.741H165.79V151.129H169.763V151.741H168.495V161.499H169.763V162.089Z" fill="#E8E8E3"/>
<path d="M178.744 162.089H171.157V161.477H172.404V151.74H171.157V151.129H177.813V150.665H178.574V153.3H177.813V151.888H173.862V156.145H177.01V154.902L177.771 154.88V158.147L177.01 158.168V156.883H173.862V161.351H177.961V159.897H178.722V162.089H178.744Z" fill="#E8E8E3"/>
<path d="M195.226 151.741H193.979V158.085C193.979 159.855 193.346 161.015 191.95 161.773C191.253 162.132 190.451 162.342 189.626 162.342C187.217 162.342 185.421 160.74 185.421 158.57V151.741H184.174V151.129H188.147V151.741H186.901V158.043C186.901 160.066 188.084 161.373 189.943 161.373C191.845 161.373 193.134 160.024 193.134 158.022V151.741H191.887V151.129H195.248V151.741H195.226Z" fill="#E8E8E3"/>
<path d="M205.518 162.279H204.989L198.587 153.49V161.478H199.854V162.089H196.473V161.478H197.741V152.373L197.298 151.741H196.156V151.129H198.587L204.694 159.476V151.741H203.425V151.129H206.785V151.741H205.538V162.279H205.518Z" fill="#E8E8E3"/>
<path d="M211.963 162.089H207.99V161.478H209.237V151.741H207.99V151.129H211.963V151.741H210.716V161.499H211.963V162.089Z" fill="#E8E8E3"/>
<path d="M218.704 162.385H218.133L213.929 151.741H212.935V151.129H217.077V151.741H215.513L218.746 159.918L221.958 151.741H220.86V151.129H223.713V151.741H222.887L218.704 162.385Z" fill="#E8E8E3"/>
<path d="M232.313 162.089H224.726V161.477H225.974V151.74H224.726V151.129H231.383V150.665H232.144V153.3H231.383V151.888H227.431V156.145H230.58V154.902L231.341 154.88V158.147L230.58 158.168V156.883H227.431V161.351H231.531V159.897H232.292V162.089H232.313Z" fill="#E8E8E3"/>
<path d="M243.554 162.089H242.139C241.145 162.089 240.977 161.984 240.427 161.099L237.933 157.157H236.623V161.478H237.87V162.089H233.897V161.478H235.145V151.741H233.897V151.129H238.546C240.173 151.129 241.082 151.572 241.59 152.605C241.801 153.047 241.928 153.553 241.928 154.08C241.928 155.703 241.018 156.736 239.434 156.968L241.842 160.656C242.244 161.267 242.519 161.478 242.92 161.478H243.576V162.089H243.554ZM236.623 156.399H238.23C239.497 156.399 240.385 155.471 240.385 154.101C240.385 152.668 239.603 151.867 238.208 151.867H236.645V156.399H236.623Z" fill="#E8E8E3"/>
<path d="M245.688 162.257H244.907V159.265H245.688V160.571C246.703 161.246 247.147 161.414 247.887 161.414C249.218 161.414 250.126 160.719 250.126 159.665C250.126 158.717 249.472 158.021 247.675 157.094C245.562 155.998 244.864 155.155 244.864 153.806C244.864 152.162 246.26 150.918 248.162 150.918C248.986 150.918 249.62 151.066 250.148 151.382V150.771H250.909V153.616H250.148V152.436C249.302 151.867 248.88 151.698 248.203 151.698C247.062 151.698 246.344 152.372 246.344 153.405C246.344 154.248 246.83 154.733 248.922 155.934C251.014 157.136 251.606 157.873 251.606 159.222C251.606 160.951 250.169 162.279 248.288 162.279C247.231 162.279 246.555 162.068 245.71 161.52V162.257H245.688Z" fill="#E8E8E3"/>
<path d="M257.079 162.089H253.106V161.478H254.353V151.741H253.106V151.129H257.079V151.741H255.833V161.499H257.079V162.089Z" fill="#E8E8E3"/>
<path d="M265.426 162.089H260.629V161.478H262.298V151.951H258.96V153.279H258.157V150.645H258.96V151.108H267.095V150.645H267.898V153.279H267.095V151.951H263.757V161.478H265.426V162.089Z" fill="#E8E8E3"/>
<path d="M275.971 162.089H271.999V161.478H273.245V157.031L269.801 151.719H268.829V151.108H272.95V151.719H271.428L274.302 156.082L276.965 151.719H275.444V151.108H278.782V151.719H277.916L274.704 156.925V161.478H275.971V162.089Z" fill="#E8E8E3"/>
<path d="M283.072 156.63C283.072 153.511 285.501 150.918 288.46 150.918C291.355 150.918 293.806 153.511 293.806 156.609C293.806 159.708 291.376 162.321 288.46 162.321C285.544 162.321 283.072 159.729 283.072 156.63ZM284.741 156.609C284.741 159.412 286.305 161.457 288.481 161.457C290.616 161.457 292.18 159.412 292.18 156.609C292.18 153.806 290.636 151.783 288.502 151.783C286.305 151.783 284.741 153.785 284.741 156.609Z" fill="#E8E8E3"/>
<path d="M298.815 162.089H294.842V161.477H296.089V151.74H294.842V151.129H301.498V150.665H302.259V153.3H301.498V151.888H297.546V156.145H300.695V154.902L301.457 154.88V158.147L300.695 158.168V156.883H297.546V161.477H298.794V162.089H298.815Z" fill="#E8E8E3"/>
<path d="M149.391 197.646H147.32V189.763H149.391V193.22C152.075 195.033 153.258 195.454 155.203 195.454C158.731 195.454 161.099 193.62 161.099 190.859C161.099 188.351 159.387 186.518 154.632 184.052C149.095 181.164 147.194 178.951 147.194 175.347C147.194 171.005 150.892 167.759 155.858 167.759C158.055 167.759 159.682 168.16 161.099 168.982V167.422H163.128V174.925H161.099V171.806C158.858 170.309 157.759 169.867 156.006 169.867C153.005 169.867 151.082 171.658 151.082 174.377C151.082 176.611 152.35 177.897 157.844 181.059C163.339 184.22 164.924 186.138 164.924 189.742C164.924 194.295 161.14 197.815 156.175 197.815C153.406 197.815 151.61 197.246 149.413 195.834V197.646H149.391Z" fill="#E8E8E3"/>
<path d="M184.533 197.266H174.074V195.644H177.371V183.925L168.263 169.909H165.705V168.286H176.567V169.909H172.574L180.138 181.417L187.133 169.909H183.139V168.286H191.93V169.909H189.648L181.196 183.651V195.622H184.533V197.266Z" fill="#E8E8E3"/>
<path d="M194.106 197.266V195.644H197.403V169.909H194.106V168.286H207.082C215.005 168.286 221.45 174.777 221.45 182.744C221.45 190.859 215.111 197.266 207.018 197.266H194.106ZM201.27 195.074H206.553C212.576 195.074 217.161 189.763 217.098 182.787C217.098 176 212.428 170.52 206.637 170.52H201.27V195.074Z" fill="#E8E8E3"/>
<path d="M246.83 197.751H245.478L228.594 174.567V195.644H231.933V197.266H223.057V195.644H226.396V171.574L225.213 169.909H222.169V168.286H228.53L244.632 190.332V169.909H241.293V168.286H250.127V169.909H246.83V197.751Z" fill="#E8E8E3"/>
<path d="M273.119 197.267H253.106V195.644H256.425V169.909H253.127V168.286H270.668V167.063H272.695V174.04H270.709V170.309H260.291V181.564H268.596V178.276L270.625 178.234V186.876L268.596 186.918V183.546H260.291V195.307H271.111V191.449H273.14V197.267H273.119Z" fill="#E8E8E3"/>
<path d="M294.885 197.266H284.424V195.644H287.721V183.925L278.613 169.909H276.077V168.286H286.939V169.909H282.945L290.51 181.417L297.505 169.909H293.511V168.286H302.302V169.909H300.02L291.566 183.651V195.622H294.906V197.266H294.885Z" fill="#E8E8E3"/>
<path d="M92.1663 189.131H98.6537V188.14H92.1663V189.131ZM92.1663 191.808H98.6537V190.838H92.1663V191.808ZM92.1663 186.454H98.6537V185.464H92.1663V186.454ZM87.4961 188.14H81.0086V189.131H87.4961V188.14ZM87.4961 190.838H81.0086V191.808H87.4961V190.838ZM87.4961 185.464H81.0086V186.454H87.4961V185.464ZM97.8085 168.286C95.167 168.159 92.4833 168.075 89.8418 168.075C87.2003 168.075 84.5165 168.159 81.875 168.286V181.354H56.7915C57.827 187.634 60.405 193.494 64.0821 198.384C64.5681 197.688 65.3922 197.225 66.322 197.225H81.875V210.84C84.4109 211.536 87.0735 211.915 89.8206 211.915V212.021H89.8418V211.915C92.5889 211.915 95.2515 211.536 97.8085 210.819V197.225H113.383C114.291 197.225 115.115 197.667 115.601 198.363C119.278 193.473 121.835 187.592 122.892 181.332H97.8085V168.286ZM85.235 172.354L88.6161 173.955L89.8206 170.436L91.0885 173.955L94.4274 172.333L92.8213 175.705L96.3504 176.906L92.8213 178.171L94.4485 181.501L91.0463 179.899L89.8418 183.398L88.5739 179.878L85.235 181.501L86.8411 178.108L83.312 176.906L86.8622 175.642L85.235 172.354ZM73.38 193.958L70.0412 192.335L68.7733 195.855L67.5688 192.356L64.1665 193.958L65.8148 190.627L62.2647 189.363L65.7937 188.161L64.1877 184.768L67.5054 186.391L68.7733 182.871L69.9778 186.37L73.38 184.768L71.7528 188.098L75.2819 189.363L71.7528 190.564L73.38 193.958ZM78.7475 193.705H77.2683V192.63H78.7475V193.705ZM78.7475 190.817H77.2683V189.742H78.7475V190.817ZM78.7475 187.929H77.2683V186.855H78.7475V187.929ZM78.7475 185.063H77.2683V183.988H78.7475V185.063ZM79.5505 193.705V183.314H86.1015C86.2282 183.293 86.3762 183.314 86.5029 183.314C88.0032 183.314 89.1655 184.473 89.1655 185.927V194.632C88.6795 194.063 87.9399 193.684 87.1158 193.684C87.0101 193.705 81.6003 193.705 79.5505 193.705ZM94.4485 207.257L91.0463 205.655L89.8418 209.175L88.5739 205.634L85.235 207.257L86.8411 203.864L83.312 202.662L86.8411 201.398L85.2139 198.068L88.6161 199.669L89.8206 196.171L91.0885 199.69L94.4274 198.068L92.8213 201.461L96.3504 202.662L92.8213 203.927L94.4485 207.257ZM106.282 184.768L109.685 186.37L110.889 182.871L112.157 186.391L115.496 184.768L113.89 188.161L117.419 189.363L113.869 190.627L115.496 193.958L112.094 192.356L110.889 195.855L109.621 192.335L106.282 193.958L107.888 190.564L104.359 189.363L107.888 188.098L106.282 184.768ZM100.915 183.967H102.394V185.042H100.915V183.967ZM100.915 186.855H102.394V187.929H100.915V186.855ZM100.915 189.742H102.394V190.817H100.915V189.742ZM100.915 192.63H102.394V193.705H100.915V192.63ZM100.133 183.314V193.705C98.0832 193.705 92.6523 193.705 92.5466 193.705C91.7225 193.705 91.004 194.063 90.4969 194.653V185.948C90.4969 184.473 91.659 183.335 93.1595 183.335C93.2862 183.335 93.4342 183.314 93.5609 183.335H100.133V183.314ZM113.066 138.989C106.599 137.619 98.0621 136.27 89.8418 136.27C77.5007 136.27 64.4624 139.326 58.7356 140.865C57.5945 141.16 56.7492 141.413 56.2421 141.56V169.55C59.9612 168.96 75.2819 166.642 89.8206 166.621C104.359 166.621 119.68 168.939 123.399 169.55V141.56C122.892 141.413 122.047 141.181 120.906 140.865C119.025 140.359 116.299 139.684 113.066 138.989ZM77.9868 141.94C78.4939 141.813 77.3951 140.991 78.1135 141.033C78.5784 141.054 80.1211 141.054 81.2834 141.623C81.4946 141.708 81.6426 141.307 82.0864 141.012C82.1286 140.991 82.2343 140.949 82.2977 141.012C82.7626 141.286 82.9105 141.708 83.1429 141.602C84.3052 141.054 85.8267 141.054 86.2704 141.012C87.0101 140.97 85.8901 141.813 86.3973 141.919C89.0177 142.551 90.9618 144.764 90.9618 147.399C90.9618 148.157 90.7716 148.874 90.518 149.548C90.37 149.907 90.0108 148.895 89.8629 149.485C89.6093 150.56 89.3346 151.361 88.7641 152.436C88.2146 153.448 87.3271 151.34 87.0523 151.93C86.5451 152.984 85.3617 153.363 84.5376 153.49C84.432 153.49 84.3474 153.49 84.4743 153.384C84.5165 153.342 84.7279 153.153 84.7701 152.773C84.7701 152.731 84.749 152.668 84.8335 152.626C85.4675 152.331 85.9324 151.74 86.0591 151.045C86.2493 150.392 86.524 149.464 86.8411 148.895C87.5596 147.63 86.6931 146.113 86.9044 145.776C87.3905 145.46 87.7074 144.911 87.7074 144.279C87.7074 143.289 86.9044 142.488 85.9113 142.488C85.383 142.488 84.8969 142.719 84.5799 143.099L84.5376 143.141C84.3686 143.31 84.2207 143.499 84.0727 143.689C83.9037 143.9 83.946 144.279 84.2207 144.342C85.4463 144.658 86.2282 147.399 85.7422 148.284C85.5308 148.684 84.8546 150.16 84.8546 150.581C84.8546 151.129 84.4109 151.572 83.8614 151.572C83.4389 151.572 83.0796 151.319 82.9316 150.918L82.9528 150.876C83.2909 150.665 84.0305 150.223 84.0305 149.759L83.8825 148.263C84.4954 148.199 84.7701 147.862 84.8546 147.293C84.9181 147.251 84.9603 147.209 85.0026 147.167C85.2139 146.977 85.3406 146.471 84.8969 146.555C84.2841 146.661 83.5867 146.64 82.8893 146.83C82.8049 146.851 82.7415 146.935 82.7204 147.019C82.6991 147.146 83.0796 148.958 83.1852 149.359C83.1852 149.401 83.164 149.422 83.1429 149.422C82.8682 149.401 82.3822 149.38 82.2555 149.38C82.1286 149.38 81.6637 149.401 81.3679 149.422C81.3468 149.422 81.3045 149.38 81.3045 149.359C81.389 148.937 81.7905 147.125 81.7905 147.125C81.7905 147.04 81.7905 146.977 81.7483 146.914C81.6215 146.745 79.8464 146.598 79.614 146.555C79.5082 146.534 79.4026 146.577 79.3393 146.661C79.1702 146.914 79.466 147.188 79.6773 147.293C79.7618 147.841 80.0365 148.178 80.6283 148.242L80.6494 148.263C80.6283 148.368 80.4803 149.759 80.4803 149.759C80.4803 150.244 81.2199 150.644 81.5792 150.855C81.6003 150.876 81.6215 150.918 81.6215 150.939C81.4524 151.277 81.0932 151.53 80.7128 151.53C80.1634 151.53 79.7196 151.087 79.7196 150.539C79.7196 150.181 79.0645 148.642 78.8109 148.221C78.2826 147.314 79.0645 144.616 80.3324 144.3C80.6071 144.237 80.755 143.837 80.5438 143.626C80.0154 143.099 79.4026 142.445 78.5997 142.445C77.6064 142.445 76.8245 143.246 76.8245 144.237C76.8245 145.375 77.691 145.544 77.6275 145.86C77.2683 146.914 77.2683 148.052 77.7332 148.853C78.0501 149.401 78.3037 150.307 78.5151 150.939C78.6419 151.593 79.0222 152.162 79.5928 152.478C79.8675 152.647 79.7407 152.857 79.8464 153.089C79.9098 153.195 79.9943 153.279 80.0577 153.342C80.1845 153.427 80.0789 153.448 79.9943 153.448C79.1702 153.342 77.8812 152.984 77.3528 151.867C77.0781 151.277 76.1694 153.384 75.6411 152.373C75.0706 151.298 74.817 150.497 74.5423 149.422C74.3943 148.832 74.0352 149.843 73.8872 149.485C73.6336 148.811 73.4434 148.115 73.4434 147.335C73.4434 144.764 75.3875 142.551 77.9868 141.94ZM85.4463 143.773C85.4252 143.752 85.4252 143.647 85.4675 143.626C85.5942 143.52 85.7633 143.478 85.9324 143.478C86.3762 143.478 86.7354 143.837 86.7354 144.279C86.7354 144.532 86.6297 144.743 86.4395 144.89C86.3973 144.933 86.3127 144.89 86.2916 144.848C86.0591 144.427 85.7844 144.068 85.4463 143.773ZM83.6501 152.752C83.46 153.258 82.7415 153.089 82.3611 153.405C82.3188 153.448 82.2131 153.448 82.1709 153.405C81.7905 153.089 81.0932 153.237 80.8607 152.689C80.8396 152.647 80.8396 152.562 80.9452 152.541C81.4524 152.478 81.8962 152.246 82.2131 151.888C82.2343 151.846 82.3188 151.825 82.4033 151.909C82.6991 152.225 83.1007 152.478 83.5656 152.541C83.6078 152.562 83.6924 152.605 83.6501 152.752ZM78.2615 144.869C78.2404 144.89 78.1559 144.933 78.0924 144.869C77.9234 144.722 77.7966 144.49 77.7966 144.237C77.7966 143.794 78.1559 143.436 78.5997 143.436C78.8109 143.436 79.0011 143.52 79.1491 143.647C79.2124 143.689 79.1702 143.794 79.1491 143.815C78.8109 144.153 78.5151 144.49 78.2615 144.869ZM71.2034 155.134C70.654 155.134 70.4427 155.302 70.0412 155.555C69.7876 155.724 69.7242 155.239 70.0201 154.249C70.2525 153.469 68.7099 153.047 68.3506 153.405C67.8223 153.806 66.5122 154.607 65.202 153.237C64.9484 152.963 65.7937 153.047 65.836 152.815C65.9205 152.457 66.2374 152.246 66.3642 152.12C66.4487 152.014 66.4487 151.846 66.3009 151.783C65.8993 151.572 65.3499 151.108 65.4978 150.265C65.5189 150.139 64.8217 150.096 65.0541 149.886C66.2798 148.769 67.611 149.464 68.1393 149.822C68.2239 149.865 68.414 149.865 68.4352 149.696C68.4775 149.338 68.2873 149.085 69.0269 148.495C69.1748 148.368 68.6042 147.883 69.0057 147.904C71.5204 148.537 70.3793 151.15 70.9076 151.614C71.8797 152.478 74.2041 153.153 76.3807 153.616C76.5709 153.658 77.2472 153.89 77.3951 153.975C79.1702 154.881 80.2478 154.797 81.1988 154.417C81.4946 154.291 81.4946 154.691 81.389 154.775C77.8812 158.127 75.1973 157.263 74.2676 156.672C73.6125 156.251 72.26 156.23 71.6472 157.094C71.5415 157.199 71.3514 157.263 71.2668 156.989C71.0766 156.356 71.2879 155.935 71.4781 155.471C71.605 155.197 71.3091 155.134 71.2034 155.134ZM104.676 158.232C104.211 158.633 103.366 159.096 102.035 159.033C101.464 159.012 101.19 159.181 101.063 159.328C100.978 159.434 100.936 159.581 100.915 159.602C100.83 159.876 100.936 160.171 101.084 160.403C101.232 160.614 101.168 160.74 100.957 160.782C100.746 160.846 100.45 160.846 99.8793 160.572C99.6258 160.445 99.5624 160.614 99.5202 160.719C99.4145 160.993 99.6046 161.33 99.9851 161.583C100.175 161.752 100.133 161.921 99.8371 162.026C99.3299 162.195 98.8862 161.963 98.1465 161.562C97.724 161.33 97.3858 161.288 97.09 161.626C96.9209 161.815 96.942 161.984 97.0266 162.089C97.3225 162.363 97.4915 162.932 96.7731 163.839C96.5406 164.134 96.287 163.312 96.0546 163.417C95.0825 163.881 94.2794 163.269 93.9625 162.869C93.8991 162.785 93.7511 162.764 93.582 162.869C93.096 163.206 92.0395 163.733 91.6379 162.785C91.5746 162.637 91.004 162.996 91.004 162.721C91.0252 161.162 92.3775 160.867 92.9693 160.825C93.1384 160.804 93.1806 160.719 93.096 160.572C92.8636 160.234 92.5889 159.834 92.7368 159.37C92.8424 159.033 91.955 158.949 92.3142 158.759C94.1104 157.874 95.1036 159.581 95.4206 159.75C95.9488 160.045 98.2734 159.286 98.5692 158.021C98.6326 157.768 98.0198 157.663 97.4281 157.516C97.3225 157.494 97.2591 157.347 97.4492 157.199C98.865 156.145 100.006 154.775 102.563 154.523C102.88 154.48 103.007 154.754 103.007 154.881C103.049 155.281 103.155 155.661 103.324 156.019C103.704 156.799 104.148 157.284 104.592 157.642C104.845 157.895 104.803 158.127 104.676 158.232ZM115.411 157.431C115.644 157.558 115.644 157.684 115.475 157.832C115.306 157.979 115.031 158.127 114.418 158.127C114.143 158.127 114.143 158.295 114.164 158.422C114.207 158.717 114.524 158.928 114.968 158.991C115.2 159.054 115.263 159.223 115.031 159.434C114.651 159.813 114.164 159.813 113.319 159.792C112.516 159.771 111.882 160.719 112.347 161.12C112.664 161.394 113.298 161.984 112.749 163.628C112.58 164.113 112.263 163.185 112.009 163.333C111.354 163.733 110.762 163.227 110.466 162.869C110.34 162.721 110.213 162.721 110.128 162.869C109.854 163.333 109.156 164.134 107.762 163.375C107.466 163.206 106.832 163.775 106.79 163.586C106.557 162.49 107.128 161.857 107.592 161.52C107.635 161.478 107.825 161.225 107.508 161.246C107.043 161.225 106.451 161.078 106.388 160.487C106.388 160.361 105.775 160.403 105.817 160.234C105.965 159.434 107.719 158.843 108.945 159.665C109.98 160.34 111.27 158.021 110.34 156.946C109.663 156.167 105.733 158.359 104.402 155.513C103.873 154.375 104.528 153.405 104 153.321C103.451 153.237 100.978 152.71 98.2311 154.902C93.6033 158.611 88.5739 156.588 87.3905 155.766C87.2003 155.703 87.0312 155.85 87.0947 156.04C87.2848 156.525 87.2003 156.967 86.9678 157.305C86.4818 158.042 84.8124 158.78 84.5165 158.864C82.5724 159.434 82.7626 160.93 82.9739 161.583C83.0373 161.794 82.9528 161.899 82.7415 161.878C82.1497 161.773 80.9452 161.394 80.4592 160.234C80.4169 160.108 80.269 160.087 80.1 160.213C79.3815 160.719 79.6351 161.478 79.8041 161.815C79.8675 161.942 79.8253 162.068 79.6562 162.089C79.0011 162.173 78.5151 161.394 77.9445 161.457C77.5641 161.499 77.1414 161.773 76.8879 161.942C76.7823 162.005 76.7611 162.195 76.8245 162.426C77.543 164.576 76.3596 164.661 76.2751 164.618C76.1906 164.576 76.2329 164.218 75.8947 164.155C74.7113 164.218 74.3943 163.459 74.331 162.89C74.3099 162.7 74.2253 162.637 74.1196 162.721C73.6759 163.038 72.5771 163.628 71.8797 162.743C71.774 162.616 71.457 162.743 71.2668 162.827C71.119 162.89 71.119 162.658 71.119 162.574C71.2034 161.351 72.0275 160.782 72.4925 160.572C72.6615 160.487 72.6827 160.403 72.5347 160.298C72.1544 160.024 71.4993 159.434 71.7106 158.78C71.7528 158.654 71.1612 158.422 71.3091 158.316C72.6615 157.347 74.3943 158.949 74.6057 159.138C74.8381 159.328 76.0638 159.37 79.1913 157.6C81.1777 156.483 82.2131 155.555 82.7837 154.86C82.8471 154.775 82.9951 154.628 83.2064 154.628C84.4743 154.586 85.721 154.396 86.6931 153.553C86.8622 153.384 87.0101 153.49 87.0947 153.532C88.8908 154.775 89.7995 152.035 90.1798 150.771C90.2222 150.518 90.2855 150.307 90.5602 150.286C97.1534 150.602 109.642 150.56 109.642 150.56C109.642 150.56 111.291 150.687 111.206 149.675C111.079 148.031 104.254 148.073 99.1821 148.769C97.3436 149.022 94.6598 149.169 93.0749 148.558C92.4199 148.305 91.8915 147.904 91.5957 147.377C91.2787 146.703 91.3632 146.303 91.4267 145.881C91.5112 145.586 91.659 145.249 91.8704 144.911C93.1806 142.909 96.1813 142.741 97.1322 142.741C97.3013 142.741 97.4281 142.656 97.4492 142.53C97.5338 142.066 97.893 140.991 99.1609 140.928C99.5202 140.907 99.8793 140.78 100.112 140.675C100.26 140.612 100.365 140.654 100.323 140.78C100.281 140.949 100.218 141.16 100.027 141.328C99.1397 142.087 99.2666 142.445 99.3722 142.53C99.4357 142.572 99.5202 142.551 99.5835 142.488C102.267 140.148 103.831 141.708 104.317 142.214C104.402 142.298 104.423 142.445 104.254 142.488C102.436 142.888 101.718 144.511 97.9987 144.258C97.5549 144.237 94.4907 144.068 93.5187 145.46C92.9693 146.26 93.3496 146.998 94.9979 147.377C96.2447 147.652 99.1609 147.23 100.534 147.125C101.887 147.019 107.74 146.282 110.826 147.167C112.115 147.546 114.017 148.579 113.636 150.539C113.383 151.783 112.199 152.267 112.199 152.267C112.199 152.267 108.818 154.628 114.883 154.67C116.764 154.67 114.904 156.23 114.82 156.672C114.82 156.967 115.115 157.263 115.411 157.431ZM104.296 144.342C104.106 144.385 103.852 144.448 103.556 144.637C103.007 144.996 100.809 145.902 100.133 144.827C100.133 144.827 101.676 144.785 102.669 143.9C102.669 143.9 103.746 143.541 104.38 144.111C104.465 144.153 104.465 144.3 104.296 144.342ZM89.8418 132.223C69.2171 132.223 48.698 137.703 48.698 137.703V165.061C48.698 189.721 66.4065 215.351 89.8418 219.777C114.143 215.034 131.007 189.7 131.007 165.061V137.703C130.986 137.703 113.784 132.223 89.8418 132.223ZM124.878 175.052C124.878 195.138 109.579 213.348 89.8418 213.369H89.8206C70.0834 213.348 54.784 195.117 54.784 175.052C54.784 151.466 54.784 140.485 54.784 140.485L55.2911 140.338C55.3334 140.338 73.0631 134.837 89.8206 134.837C106.578 134.837 124.35 140.338 124.35 140.338L124.857 140.485C124.878 140.485 124.878 151.466 124.878 175.052Z" fill="#E8E8E3"/>
</g>
<defs>
<clipPath id="clip0_9597_1638">
<rect width="255" height="87.5536" fill="white" transform="translate(48 132.223)"/>
</clipPath>
</defs>
</svg>
