<svg width="351" height="351" viewBox="0 0 351 351" fill="none" xmlns="http://www.w3.org/2000/svg">
<path d="M60.0453 221.019H66.1096C66.2559 221.019 66.3523 220.922 66.3523 220.775V217.839C66.3523 217.692 66.2559 217.595 66.1096 217.595H63.3334C63.1872 217.595 63.0907 217.498 63.0907 217.351V214.047C63.0907 213.9 63.1872 213.803 63.3334 213.803H65.8902C66.0365 213.803 66.1329 213.707 66.1329 213.559V210.65C66.1329 210.503 66.0365 210.406 65.8902 210.406H63.3334C63.1872 210.406 63.0907 210.309 63.0907 210.162V207.787C63.0907 207.47 63.2603 207.299 63.7723 207.299C64.3807 207.299 65.2585 207.423 65.94 207.837C66.2094 207.984 66.3556 207.934 66.3556 207.667V204.142C66.3556 203.995 66.2592 203.898 66.1129 203.898H59.5599C59.3404 203.898 59.2174 204.045 59.2673 204.266C59.4867 205.295 59.5599 205.879 59.5599 207.984V220.535C59.5599 220.852 59.7294 221.023 60.0453 221.023V221.019ZM70.2284 221.264C72.9547 221.264 74.5373 219.112 74.5373 216.199C74.5373 214.044 73.6363 212.748 72.589 211.526L72.2964 211.181C71.4187 210.179 70.8601 209.468 70.8601 208.539C70.8601 207.951 71.1527 207.34 71.8343 207.34C72.4427 207.34 72.8084 207.657 73.2938 208.369C73.6363 208.883 73.7094 208.98 73.9023 208.98C74.1217 208.98 74.1949 208.806 74.1949 208.539V205.629C74.1949 205.188 74.1217 204.797 73.8059 204.43C73.367 203.965 72.5624 203.648 71.5184 203.648C68.7921 203.648 67.2561 205.826 67.2561 208.763C67.2561 210.941 68.2801 212.361 69.2776 213.51L69.4238 213.68C70.2284 214.609 70.91 215.367 70.91 216.299C70.91 216.861 70.6407 217.572 69.886 217.572C69.1313 217.572 68.6691 217.011 68.1571 216.179C67.8645 215.665 67.8147 215.517 67.5952 215.517C67.3525 215.517 67.2794 215.761 67.2794 216.005V219.282C67.2794 219.723 67.3525 220.114 67.6684 220.455C68.1072 220.943 68.9517 221.264 70.2251 221.264H70.2284ZM77.9595 221.019H80.5162C80.8319 221.019 81.0048 220.849 81.0048 220.532V207.637C81.0048 207.466 81.0281 207.319 81.3207 207.319C81.8061 207.319 82.1985 207.587 82.9532 207.954C83.2225 208.078 83.3655 207.954 83.3655 207.687V204.139C83.3655 203.992 83.2691 203.895 83.1228 203.895H75.3561C75.2098 203.895 75.1134 203.992 75.1134 204.139V207.687C75.1134 207.957 75.2597 208.078 75.529 207.954C76.2837 207.587 76.6727 207.319 77.1615 207.319C77.454 207.319 77.4773 207.466 77.4773 207.637V220.532C77.4773 220.849 77.6468 221.019 77.9628 221.019H77.9595ZM265.185 221.019C265.502 221.019 265.671 220.849 265.671 220.532V204.383C265.671 204.065 265.502 203.895 265.185 203.895H263.118C262.825 203.895 262.729 204.019 262.533 204.433C261.997 205.582 261.435 206.538 260.634 207.466C260.342 207.81 260.292 208.004 260.292 208.495V211.946C260.292 212.217 260.388 212.36 260.534 212.36C260.777 212.36 260.947 212.043 261.628 211.014L262.14 210.256C262.237 210.109 262.287 210.085 262.336 210.085C262.433 210.085 262.433 210.209 262.433 210.379V220.532C262.433 220.849 262.602 221.019 262.918 221.019H265.185ZM270.881 203.648C267.986 203.648 266.669 205.9 266.669 209.595C266.669 212.945 267.765 215.073 269.857 215.073C270.634 215.073 271.244 214.729 271.636 214.265C271.782 214.094 271.928 214.068 271.928 214.462C271.928 216.663 271.223 217.936 270.053 217.936C269.299 217.936 268.932 217.448 268.398 216.617C268.2 216.323 268.056 216.152 267.862 216.152C267.642 216.152 267.547 216.373 267.547 216.69V219.406C267.547 219.967 267.668 220.362 268.081 220.679C268.493 220.996 269.276 221.267 270.296 221.267C273.729 221.267 275.36 218.16 275.36 211.703C275.36 206.22 273.973 203.655 270.877 203.655L270.881 203.648ZM270.127 209.421C270.127 206.902 270.469 206.337 270.931 206.337C271.417 206.337 271.759 206.925 271.759 209.421C271.759 211.916 271.417 212.504 270.931 212.504C270.444 212.504 270.127 211.943 270.127 209.421ZM277.052 221.019H279.535C279.974 221.019 280.093 220.896 280.093 220.458C280.071 215.955 281.215 211.796 283.284 207.54C283.502 207.099 283.576 206.781 283.576 206.317V204.386C283.576 204.069 283.405 203.898 283.09 203.898H276.225C275.908 203.898 275.739 204.069 275.739 204.386V206.978C275.739 207.296 275.908 207.466 276.225 207.466H279.463C279.974 207.466 279.902 207.71 279.706 208.078C277.587 212.09 276.563 216.055 276.444 220.408C276.421 220.896 276.59 221.019 277.052 221.019ZM288.125 221.264C291.022 221.264 292.337 219.012 292.337 215.317C292.337 211.966 291.239 209.838 289.147 209.838C288.37 209.838 287.762 210.182 287.368 210.647C287.222 210.817 287.076 210.844 287.076 210.45C287.076 208.248 287.781 206.976 288.951 206.976C289.705 206.976 290.072 207.463 290.608 208.298C290.804 208.592 290.95 208.763 291.142 208.763C291.362 208.763 291.459 208.542 291.459 208.225V205.509C291.459 204.948 291.336 204.553 290.923 204.236C290.511 203.919 289.73 203.648 288.708 203.648C285.274 203.648 283.644 206.755 283.644 213.212C283.644 218.694 285.035 221.26 288.127 221.26L288.125 221.264ZM287.247 215.491C287.247 212.995 287.589 212.407 288.073 212.407C288.557 212.407 288.879 212.969 288.879 215.491C288.879 218.013 288.537 218.574 288.073 218.574C287.589 218.574 287.247 217.986 287.247 215.491ZM106.824 158.736C105.528 159.287 104.035 159.588 102.399 159.588C100.763 159.588 99.2672 159.29 97.9705 158.743C96.8733 158.278 95.9989 158.829 95.9989 160.022V195.887C95.9989 196.672 96.6307 197.307 97.412 197.307H107.383C108.164 197.307 108.796 196.672 108.796 195.887V160.015C108.796 158.819 107.918 158.268 106.821 158.736H106.824ZM102.343 145.015C98.15 145.015 95.3773 147.29 95.4902 151.045C95.6034 154.629 98.21 157.074 102.399 157.074C106.588 157.074 109.251 154.629 109.251 151.045C109.251 147.46 106.535 145.015 102.343 145.015ZM238.914 158.736C237.617 159.287 236.124 159.588 234.488 159.588C232.852 159.588 231.356 159.29 230.06 158.743C228.963 158.278 228.088 158.829 228.088 160.022V195.887C228.088 196.672 228.72 197.307 229.501 197.307H239.472C240.254 197.307 240.885 196.672 240.885 195.887V160.015C240.885 158.819 240.007 158.268 238.91 158.736H238.914ZM234.431 145.015C230.242 145.015 227.466 147.29 227.579 151.045C227.692 154.629 230.299 157.074 234.488 157.074C238.677 157.074 241.34 154.629 241.34 151.045C241.34 147.46 238.621 145.015 234.431 145.015ZM255.55 145.779H244.472C243.498 145.779 242.879 146.631 243.095 147.519C243.827 150.536 244.166 154.177 244.166 159.095V195.885C244.166 196.671 244.798 197.305 245.579 197.305H255.55C256.331 197.305 256.963 196.671 256.963 195.885V147.202C256.963 146.417 256.331 145.782 255.55 145.782V145.779ZM93.2859 145.779H79.5249C78.6239 145.779 78.0254 146.557 78.3113 147.442C79.2457 150.315 79.1624 152.884 78.9763 155.283L76.8251 183.538C76.762 184.357 75.7579 184.357 75.6981 183.538L73.5702 155.283C73.384 152.884 73.3009 150.319 74.2352 147.442C74.5244 146.557 73.9259 145.779 73.0216 145.779H58.8881C57.8342 145.779 57.1725 146.758 57.5915 147.76C58.8449 150.766 59.4533 153.72 59.8091 156.192L65.6639 195.491C65.8202 196.534 66.7113 197.305 67.7619 197.305H84.389C85.4396 197.305 86.3305 196.534 86.4869 195.491L92.3649 156.192C92.7242 153.72 93.3325 150.766 94.5826 147.76C95.0016 146.754 94.3366 145.779 93.2859 145.779ZM292.253 195.569L281.217 174.777C280.955 174.285 280.821 173.818 280.821 173.41C280.821 172.214 281.654 171.172 283.861 171.172C285.011 171.172 285.874 171.289 287.022 171.536C287.754 171.693 288.444 171.259 288.444 170.38V159.429C288.444 158.12 287.173 157.876 285.705 157.876C277.732 157.876 275.368 163.615 274.863 169.625C274.71 171.442 274.259 172.218 273.464 172.218C273.204 172.218 273.039 172.054 273.039 171.683V147.203C273.039 146.418 272.406 145.783 271.625 145.783H260.547C259.573 145.783 258.955 146.635 259.171 147.523C259.902 150.54 260.241 154.181 260.241 159.099V195.89C260.241 196.675 260.873 197.309 261.654 197.309H271.625C272.406 197.309 273.039 196.675 273.039 195.89V183.626C273.039 183.198 273.484 183.061 273.631 183.469L278.288 196.03C278.548 196.798 279.265 197.313 280.073 197.313H291.214C292.166 197.313 292.675 196.36 292.255 195.572L292.253 195.569ZM133.463 157.872C130.048 157.872 127.165 158.744 124.815 161.146C124.592 161.373 124.21 161.213 124.21 160.895V160.03C124.21 159.245 123.578 158.61 122.797 158.61H112.377C111.4 158.61 110.784 159.469 111.004 160.361C111.735 163.374 112.071 167.012 112.071 171.926V195.885C112.071 196.67 112.703 197.305 113.484 197.305H123.455C124.236 197.305 124.868 196.67 124.868 195.885V170.446C124.868 168.639 125.832 167.6 127.362 167.6C128.778 167.6 129.682 168.636 129.682 170.446V195.885C129.682 196.67 130.314 197.305 131.095 197.305H141.066C141.847 197.305 142.479 196.67 142.479 195.885V167.547C142.479 161.326 138.892 157.872 133.456 157.872H133.463ZM216.119 157.872C212.558 157.872 209.483 159.282 207.488 161.353C207.252 161.597 206.936 161.58 206.75 161.279C205.367 159.065 202.936 157.872 199.545 157.872C196.154 157.872 193.351 159.238 191.316 161.206C191.093 161.423 190.718 161.263 190.718 160.949V160.033C190.718 159.248 190.086 158.614 189.305 158.614H178.885C177.907 158.614 177.292 159.472 177.512 160.364C178.243 163.377 178.579 167.015 178.579 171.929V195.889C178.579 196.674 179.211 197.308 179.992 197.308H189.963C190.744 197.308 191.376 196.674 191.376 195.889V170.443C191.376 168.766 191.964 167.607 193.49 167.607C194.907 167.607 195.342 168.769 195.342 170.453V195.892C195.342 196.677 195.974 197.312 196.755 197.312H206.726C207.508 197.312 208.139 196.677 208.139 195.892V170.379C208.156 168.746 208.748 167.61 210.254 167.61C211.67 167.61 212.106 168.773 212.106 170.456V195.895C212.106 196.68 212.737 197.315 213.519 197.315H223.49C224.271 197.315 224.903 196.68 224.903 195.895V167.556C224.903 161.567 221.844 157.882 216.115 157.882L216.119 157.872ZM161.733 157.872C157.224 157.872 151.974 158.844 147.785 162.318C147.35 162.683 147.094 163.22 147.094 163.788V172.481C147.094 173.52 148.271 174.094 149.082 173.393C153.268 169.772 157.38 167.657 160.346 167.657C161.932 167.657 162.896 168.088 162.896 169.334C162.896 171.305 160.12 172.097 154.993 174.425C150.089 176.65 144.717 179.927 144.717 187.403C144.717 194.175 148.912 197.95 154.401 197.95C158.774 197.95 161.104 196.41 162.816 194.436C163.029 194.188 163.435 194.342 163.435 194.669V195.885C163.435 196.67 164.067 197.305 164.848 197.305H173.998C174.779 197.305 175.411 196.67 175.411 195.885V170.914C175.411 161.964 171.032 157.872 161.733 157.872ZM163.192 184.297C163.192 187.029 161.832 188.519 159.977 188.519C158.617 188.519 157.38 187.587 157.38 185.726C157.38 182.733 160.359 181.046 162.727 178.998C162.91 178.841 163.192 178.972 163.192 179.215V184.297ZM285.108 152.728C283.053 152.728 281.501 151.258 281.501 149.127C281.501 146.996 283.01 145.526 285.108 145.526C287.206 145.526 288.714 147.072 288.714 149.127C288.714 151.181 287.206 152.728 285.108 152.728ZM285.108 146.187C283.385 146.187 282.255 147.41 282.255 149.127C282.255 150.844 283.385 152.067 285.108 152.067C286.83 152.067 287.96 150.844 287.96 149.127C287.96 147.41 286.83 146.187 285.108 146.187Z" fill="#E8E8E3"/>
<path d="M286.127 149.745C286.117 149.728 286.127 149.705 286.144 149.695C286.616 149.468 286.873 149.017 286.873 148.449C286.873 148.115 286.76 147.026 285.317 147.026H283.737C283.654 147.026 283.628 147.079 283.654 147.143C283.731 147.337 283.768 147.457 283.768 147.891V150.938C283.768 150.991 283.811 151.035 283.865 151.035H284.635C284.689 151.035 284.732 150.991 284.732 150.938V149.899C284.732 149.879 284.749 149.862 284.767 149.862H285.101C285.118 149.862 285.134 149.872 285.144 149.889L285.662 150.971C285.682 151.008 285.719 151.035 285.763 151.035H286.727C286.805 151.035 286.838 150.968 286.803 150.901L286.127 149.738V149.745ZM285.221 149.144H284.767C284.749 149.144 284.732 149.127 284.732 149.107V147.864C284.732 147.844 284.749 147.828 284.767 147.828H285.221C285.806 147.828 285.894 148.235 285.894 148.476C285.894 148.676 285.829 149.147 285.221 149.147V149.144Z" fill="#E8E8E3"/>
</svg>
