<svg width="191" height="191" viewBox="0 0 191 191" fill="none" xmlns="http://www.w3.org/2000/svg">
<g clip-path="url(#clip0_10104_2249)">
<path d="M127.727 38.6728L95.0223 71.4088H127.727V38.6728ZM127.727 38.6728V47.6352M94.9465 33.8574V157.857M95.0223 118.332L127.727 151.068V104.138L95.0223 71.4019L62.3138 104.138M127.727 104.138L95.0188 71.4019M127.727 104.138L127.724 118.143H141.76V71.4019H95.0188M95.0223 71.4019V118.332M95.0223 118.332L62.3138 151.068V104.138M95.0188 71.4019L62.3138 104.138L62.3104 118.143H48.2777V71.4019H95.0188ZM95.0188 71.4088L62.3104 38.6728V71.4088H95.0188Z" stroke="#E8E8E3" stroke-width="3.44444" stroke-miterlimit="10"/>
</g>
<defs>
<clipPath id="clip0_10104_2249">
<rect width="96.4444" height="124" fill="white" transform="translate(46.5555 33.8574)"/>
</clipPath>
</defs>
</svg>
