<svg width="191" height="191" viewBox="0 0 191 191" fill="none" xmlns="http://www.w3.org/2000/svg">
<g clip-path="url(#clip0_10104_2247)">
<path d="M57.304 116.46L81.732 102.82L82.104 101.58L81.732 100.96H80.492L76.4 100.712L62.512 100.34L50.36 99.72L38.58 99.1L35.604 98.48L33 94.76L33.248 92.9L35.728 91.288L39.324 91.536L47.136 92.156L58.916 92.9L67.472 93.396L80.12 94.884H82.104L82.352 94.016L81.732 93.52L81.236 93.024L68.96 84.84L55.816 76.16L48.872 71.076L45.152 68.596L43.292 66.116L42.548 60.908L45.896 57.188L50.484 57.56L51.6 57.808L56.188 61.404L66.108 68.968L78.88 78.64L80.74 80.128L81.484 79.632L81.608 79.26L80.74 77.896L73.92 65L66.48 52.104L63.132 46.772L62.264 43.548C61.892 42.308 61.768 41.068 61.768 39.828L65.488 34.62L67.72 34L72.928 34.744L74.912 36.48L78.136 43.92L83.22 55.452L91.28 71.076L93.76 75.788L95 80.004L95.372 81.244H96.24V80.624L96.86 71.696L98.1 60.908L99.34 47.02L99.712 43.052L101.696 38.34L105.416 35.86L108.64 37.224L111.12 40.82L110.748 43.052L109.384 52.6L106.16 67.604L104.3 77.772H105.416L106.656 76.408L111.74 69.712L120.296 59.048L124.016 54.708L128.48 50.12L131.332 47.888H136.664L140.508 53.716L138.772 59.792L133.316 66.736L128.728 72.564L122.156 81.368L118.188 88.436L118.56 88.932H119.428L134.308 85.708L142.244 84.344L151.668 82.732L156.008 84.716L156.504 86.7L154.768 90.916L144.6 93.396L132.696 95.876L114.964 99.968L114.716 100.092L114.964 100.464L122.9 101.208L126.372 101.456H134.804L150.428 102.696L154.52 105.176L156.876 108.524L156.504 111.004L150.18 114.228L141.748 112.244L121.908 107.532L115.212 105.92H114.22V106.416L119.924 111.996L130.216 121.296L143.36 133.324L143.98 136.3L142.368 138.78L140.632 138.532L129.224 129.852L124.76 126.132L114.84 117.7H114.22V118.568L116.452 121.916L128.604 140.144L129.224 145.724L128.356 147.46L125.132 148.7L121.784 147.956L114.592 138.036L107.152 126.876L101.324 116.708L100.704 117.204L97.108 154.652L95.496 156.512L91.776 158L88.676 155.52L86.94 151.8L88.676 144.112L90.66 134.192L92.272 126.256L93.76 116.46L94.628 113.236V112.988H93.76L86.32 123.28L75.16 138.532L66.232 147.956L64.124 148.824L60.404 146.964L60.776 143.492L62.76 140.64L75.16 124.768L82.6 114.972L87.56 109.268L87.436 108.648H87.064L54.328 129.976L48.5 130.72L46.02 128.24L46.268 124.52L47.508 123.28L57.428 116.46H57.304Z" fill="#E8E8E3"/>
</g>
<defs>
<clipPath id="clip0_10104_2247">
<rect width="124" height="124" fill="white" transform="translate(33 34)"/>
</clipPath>
</defs>
</svg>
