<svg width="191" height="191" viewBox="0 0 191 191" fill="none" xmlns="http://www.w3.org/2000/svg">
<path d="M80.0203 113.492L122.707 81.9433C124.8 80.3967 127.791 80.9999 128.788 83.4024C134.036 96.0722 131.691 111.298 121.25 121.752C110.808 132.206 96.2798 134.499 83.0006 129.277L68.4942 136.002C89.3006 150.24 114.566 146.719 130.355 130.901C142.878 118.362 146.757 101.272 143.13 85.8597L143.163 85.8924C137.904 63.2512 144.456 54.2013 157.878 35.6955C158.195 35.2567 158.513 34.8179 158.831 34.3682L141.169 52.0512V51.9963L80.0095 113.503" fill="#E8E8E3"/>
<path d="M71.2114 121.159C56.2775 106.876 58.8523 84.7721 71.5947 72.0256C81.0172 62.5917 96.4551 58.7413 109.931 64.4017L124.405 57.7102C121.798 55.8234 118.456 53.794 114.621 52.368C97.2879 45.2268 76.5361 48.7809 62.446 62.8769C48.8928 76.4462 44.6307 97.3105 51.9497 115.114C57.417 128.42 48.4545 137.832 39.4264 147.332C36.2271 150.7 33.0168 154.067 30.4311 157.632L71.2002 121.169" fill="#E8E8E3"/>
</svg>
